<?xml version="1.0" encoding="UTF-8" standalone="no"?>
<svg
   height="29"
   viewBox="0 -960 1160 1160"
   width="29"
   version="1.1"
   id="svg1"
   sodipodi:docname="favicon-dark.svg"
   inkscape:version="1.3.2 (091e20ef0f, 2023-11-25, custom)"
   xmlns:inkscape="http://www.inkscape.org/namespaces/inkscape"
   xmlns:sodipodi="http://sodipodi.sourceforge.net/DTD/sodipodi-0.dtd"
   xmlns="http://www.w3.org/2000/svg"
   xmlns:svg="http://www.w3.org/2000/svg">
  <defs
     id="defs1" />
  <sodipodi:namedview
     id="namedview1"
     pagecolor="#ffffff"
     bordercolor="#000000"
     borderopacity="0.25"
     inkscape:showpageshadow="2"
     inkscape:pageopacity="0.0"
     inkscape:pagecheckerboard="0"
     inkscape:deskcolor="#d1d1d1"
     inkscape:zoom="23.178617"
     inkscape:cx="11.087806"
     inkscape:cy="14.215689"
     inkscape:window-width="1920"
     inkscape:window-height="1011"
     inkscape:window-x="0"
     inkscape:window-y="0"
     inkscape:window-maximized="1"
     inkscape:current-layer="svg1" />
  <path
     id="path2"
     style="fill:#ffffff;fill-opacity:1;stroke-width:116"
     d="M 580 -960 A 580 580 0 0 0 0 -380 A 580 580 0 0 0 580 200 A 580 580 0 0 0 1160 -380 A 580 580 0 0 0 580 -960 z M 496.01562 -768.98438 L 627.03125 -507.03125 C 640.36457 -480.36461 639.31769 -454.31768 623.98438 -428.98438 C 608.65106 -403.65107 586.01559 -391.01562 556.01562 -391.01562 L 500 -391.01562 L 500 -351.01562 C 500 -329.01565 492.15103 -310.1979 476.48438 -294.53125 C 460.81772 -278.8646 441.99998 -271.01562 420 -271.01562 L 340 -271.01562 L 340 -260 C 340 -236.66669 347.15106 -216.18227 361.48438 -198.51562 C 375.81769 -180.84898 394.01565 -168.96874 416.01562 -162.96875 L 427.96875 -160 C 454.63539 -153.33334 469.63542 -136.66664 472.96875 -110 C 476.30208 -83.33336 466.03123 -63.33332 442.03125 -50 C 402.03129 -28.000022 359.80204 -12.651033 315.46875 -3.984375 C 271.13546 4.682283 225.99995 8.984375 180 8.984375 L 180 -71.015625 C 210.66664 -71.015625 241.01565 -73.031254 271.01562 -77.03125 C 301.01559 -81.031246 330.31774 -88.317719 358.98438 -98.984375 C 328.31774 -114.31769 304.15102 -136.46878 286.48438 -165.46875 C 268.81773 -194.46872 260 -226.00003 260 -260 L 260 -351.01562 L 420 -351.01562 L 420 -471.01562 L 555 -471.01562 L 423.98438 -732.96875 L 496.01562 -768.98438 z M 865 -547.03125 C 900.99996 -511.03129 929.19794 -469.36454 949.53125 -422.03125 C 969.86456 -374.69796 980 -323.65099 980 -268.98438 C 980 -214.98443 969.86456 -164.15099 949.53125 -116.48438 C 929.19794 -68.817756 900.99996 -27.015589 865 8.984375 L 807.96875 -47.96875 C 836.63539 -76.635388 859.13543 -109.83337 875.46875 -147.5 C 891.80207 -185.16663 900 -225.65108 900 -268.98438 C 900 -312.98433 891.80207 -353.68233 875.46875 -391.01562 C 859.13543 -428.34892 836.63539 -461.33336 807.96875 -490 L 865 -547.03125 z M 752.03125 -433.98438 C 773.36456 -412.65106 790.03126 -387.86455 802.03125 -359.53125 C 814.03124 -331.19795 820 -300.98434 820 -268.98438 C 820 -236.98441 814.03124 -206.98435 802.03125 -178.98438 C 790.03126 -150.9844 773.36456 -126.33331 752.03125 -105 L 695 -161.01562 C 708.99999 -175.01561 719.96876 -191.19793 727.96875 -209.53125 C 735.96874 -227.86456 740 -247.65106 740 -268.98438 C 740 -290.31769 735.96874 -310.18231 727.96875 -328.51562 C 719.96876 -346.84894 708.99999 -363.03126 695 -377.03125 L 752.03125 -433.98438 z " />
</svg>
