<?xml version="1.0" encoding="UTF-8" standalone="no"?>
<svg
   width="3871px"
   height="2367px"
   viewBox="0 0 3871 2367"
   version="1.1"
   id="svg25"
   sodipodi:docname="composition.svg"
   inkscape:version="1.3.2 (091e20ef0f, 2023-11-25, custom)"
   xmlns:inkscape="http://www.inkscape.org/namespaces/inkscape"
   xmlns:sodipodi="http://sodipodi.sourceforge.net/DTD/sodipodi-0.dtd"
   xmlns="http://www.w3.org/2000/svg"
   xmlns:svg="http://www.w3.org/2000/svg">
  <defs
     id="defs25" />
  <sodipodi:namedview
     id="namedview25"
     pagecolor="#ffffff"
     bordercolor="#000000"
     borderopacity="0.25"
     inkscape:showpageshadow="2"
     inkscape:pageopacity="0.0"
     inkscape:pagecheckerboard="0"
     inkscape:deskcolor="#d1d1d1"
     inkscape:zoom="0.27021441"
     inkscape:cx="1935.5"
     inkscape:cy="1182.3944"
     inkscape:window-width="1920"
     inkscape:window-height="1011"
     inkscape:window-x="0"
     inkscape:window-y="0"
     inkscape:window-maximized="1"
     inkscape:current-layer="svg25" />
  <!-- Generator: Sketch 57.1 (83088) - https://sketch.com -->
  <title
     id="title1">composition-6</title>
  <desc
     id="desc1">Created with Sketch.</desc>
  <g
     id="composition-6"
     stroke="none"
     stroke-width="1"
     fill="none"
     fill-rule="evenodd">
    <rect
       fill="#9A97FF"
       x="0"
       y="0"
       width="3871"
       height="2367"
       id="rect1"
       style="fill:none" />
    <g
       id="Character/ice-cream"
       transform="translate(224.000000, 285.000000)">
      <path
         d="M1301.37705,357.812043 C1310.88548,356.794549 1312.24383,369.700265 1313.54097,375.583968 C1317.20501,373.269498 1320.46679,375.482073 1321.29608,370.077277 C1332.88868,382.231882 1342.17266,396.182748 1352.46667,409.38687 C1362.33947,422.055317 1377.77245,432.131266 1386.31314,445.448929 C1393.56252,456.754895 1381.60264,473.921273 1380.12333,485.97835 C1378.456,499.565306 1382.00053,515.115922 1391.27431,525.474266 C1395.61316,530.31864 1400.91683,533.684083 1407.32818,534.985426 C1413.70454,536.279491 1419.76901,532.537038 1425.38313,533.333273 C1430.04115,533.994134 1430.2452,537.075727 1431.87026,541.653719 C1434.09725,547.934811 1436.93637,553.865094 1442.19487,558.277143 C1448.07278,563.204489 1454.38648,564.628106 1458.86961,571.249818 C1462.78287,577.027259 1465.00112,582.622744 1471.06996,586.634492 C1479.16758,591.986885 1492.15787,593.604102 1491.28049,606.102239 C1492.67236,604.995951 1494.06422,603.889664 1495.45755,602.781921 C1498.68436,613.162099 1503.12522,623.211847 1507.86778,632.971922 C1510.0904,637.545547 1511.23158,639.975012 1511.1179,645.063934 C1511.04066,648.416276 1509.20426,650.952003 1511.18932,654.196628 C1514.36657,659.390356 1522.86062,658.685826 1526.7389,662.885351 C1530.71484,667.191138 1526.58879,673.032627 1531.18268,676.78527 C1529.24718,677.380627 1523.88375,681.715527 1525.90087,684.348782 C1528.8012,688.134905 1529.01982,682.948455 1531.05297,683.572925 C1535.72265,685.003821 1534.73741,690.83512 1538.37959,692.420313 C1539.12279,692.743986 1539.07151,689.304171 1539.03237,688.372899 L1539.02925,688.317346 L1540.63464,691.466951 C1564.96536,738.947646 1593.82401,784.015958 1616.69041,832.205215 L1618.20585,835.422517 C1660.20241,925.258877 1710.12898,1012.72982 1765.34319,1095.12931 C1778.36701,1114.56649 1792.65881,1133.87411 1804.70176,1153.86735 C1816.80155,1173.95956 1831.88329,1191.76788 1845.26709,1210.98089 C1859.03421,1230.74413 1871.63682,1251.31671 1885.51471,1270.99116 C1896.58408,1286.68297 1910.11217,1303.385 1909.93359,1323.61841 C1909.84983,1332.60991 1908.54395,1342.54175 1899.8823,1347.37448 C1899.67388,1343.66696 1894.06705,1347.7675 1892.73057,1348.67728 C1886.94447,1352.61625 1890.09112,1352.18101 1883.85467,1350.80397 C1873.73264,1348.56811 1865.08994,1351.59439 1855.72725,1345.83732 C1835.86797,1333.6274 1816.29581,1321.07395 1796.07945,1309.423 C1752.38496,1284.24332 1709.12625,1258.45954 1668.59297,1228.36561 C1597.7359,1175.75728 1520.75168,1128.61488 1455.63406,1068.77201 C1390.56453,1008.97426 1322.27841,949.648147 1245.06391,905.913403 C1239.88703,902.981742 1225.05306,898.582794 1226.42015,891.589893 C1227.61964,885.463099 1240.96118,876.871903 1245.63961,872.628709 C1261.88002,857.903441 1278.79379,843.968587 1294.45851,828.611571 C1323.37733,800.261501 1352.0819,768.973946 1375.27875,735.711086 C1386.56236,719.528722 1392.32077,701.531172 1398.90846,683.133322 C1404.72225,666.892732 1410.09734,646.899498 1400.66032,630.832129 C1396.29087,623.389435 1390.25993,620.370435 1381.82272,620.935224 C1374.84005,621.402485 1375.15341,622.83338 1372.3857,615.421254 C1369.40521,607.442884 1366.98146,598.185005 1358.98878,593.566256 C1350.70898,588.780107 1345.06863,593.883585 1338.36288,598.674101 C1330.64857,587.5268 1321.18532,568.239552 1305.63282,567.172567 C1289.39386,566.059002 1280.17108,586.133751 1274.5628,598.208296 C1257.98133,633.91081 1236.40663,667.262464 1213.20395,699.056582 C1188.05411,733.520346 1162.3417,768.578012 1134.63111,801.030079 C1128.7634,807.900706 1122.10283,817.927164 1113.83614,822.094665 C1105.60607,826.246967 1098.73525,822.584376 1091.78447,817.865419 L1091.15232,817.433701 C1074.26042,805.839518 1057.83345,793.932372 1040.2478,783.317836 C1020.76891,771.559165 1000.74349,760.788875 980.876921,749.711445 C972.113245,744.824857 963.797008,738.939699 954.765161,734.55094 C946.351275,730.460588 937.1868,728.435791 928.573242,724.856369 C960.204382,715.419446 993.521798,727.782208 1023.46083,737.587408 C1039.00022,742.67633 1055.24938,747.974864 1071.83959,746.606562 C1086.18823,745.424581 1099.20913,737.735883 1110.55833,729.339744 C1131.07492,714.161772 1132.68541,691.363518 1125.99569,668.320716 C1118.29741,641.798931 1106.52264,616.291728 1097.62633,590.132398 C1093.58044,578.233986 1090.79378,565.596108 1100.00344,555.314913 C1108.24535,546.11526 1118.911,544.982771 1130.16109,548.604406 C1157.43736,557.387746 1181.63257,565.633954 1210.87057,564.799872 C1233.73074,564.1492 1262.80697,557.65704 1278.20789,539.067044 C1286.64947,528.877555 1286.97157,514.867008 1287.00509,502.227674 C1287.04735,487.249125 1286.10292,472.184693 1284.00856,457.356075 C1280.27019,430.896882 1270.57228,404.402755 1282.73329,378.712141 C1285.58407,372.687241 1293.52282,358.653403 1301.37705,357.812043 Z M1539.02886,688.295323 L1539.02925,688.317346 L1539.01942,688.297937 L1539.01942,688.297937 C1539.01275,688.078898 1539.01973,688.107813 1539.02886,688.295323 Z M592.919215,564.036024 C600.06608,554.141918 619.62378,531.10332 634.556271,536.144231 C637.163577,537.025055 639.047922,539.627096 640.76677,541.563464 C641.984771,543.147503 643.19261,544.737318 644.391739,546.335797 C645.136476,548.436778 646.473519,549.056243 648.404319,548.195635 C653.640708,555.453046 661.030344,560.932925 664.041231,569.846574 C667.021632,578.677916 675.024684,587.242311 679.744257,595.343002 C683.395357,601.608404 691.627075,618.333761 690.997024,626.168762 L690.997024,646.165064 C690.253738,653.937973 675.734614,667.841621 670.628881,673.099129 C657.950926,686.158426 644.179786,687.829319 625.391502,686.162974 C609.474739,684.750768 588.860179,679.441277 578.085442,666.781961 C567.744772,654.635256 567.891397,635.810173 569.42152,620.850607 C571.558466,599.960642 580.715976,580.930515 592.919215,564.036024 Z M641.89186,567.351388 C638.978239,561.935043 632.602243,560.596479 627.000018,561.239048 C621.400697,561.880172 614.973891,562.350907 609.839123,564.850425 C605.097774,567.160783 602.698065,571.205353 596.788074,569.846574 C599.128262,573.883924 594.934215,576.215941 594.330296,579.85331 C593.553621,584.526009 595.059064,588.714976 598.14399,592.261375 C604.530148,599.605424 614.069463,599.462471 622.945338,600.178682 C630.449328,600.783707 639.679424,602.026968 644.088327,609.063451 C646.932265,613.600416 644.352542,616.869572 645.68523,621.426752 C646.665147,624.783991 650.764832,626.71314 652.557718,629.595311 C658.563523,620.749529 658.353022,601.79882 654.690308,592.33935 C652.959847,587.871695 649.687648,582.053926 647.094859,578.129206 C646.247049,576.84407 644.243662,575.312014 643.710878,574.250693 C642.789029,572.418291 642.899361,569.221333 641.89186,567.351388 Z"
         id="Combined-Shape"
         fill="#FF5678" />
      <g
         id="Ink"
         stroke-width="1"
         transform="translate(467.885864, 113.992096)"
         fill="#000000">
        <path
           d="M874.127217,1633.2745 C884.993766,1629.02281 898.387352,1631.00829 909.779396,1631.21338 C924.081317,1631.47084 938.422542,1632.5574 952.682249,1633.67451 C980.066243,1635.82145 1007.3134,1634.9138 1034.72069,1637.47674 C1048.32826,1638.74803 1061.94456,1639.92332 1075.56232,1641.08406 C1087.48423,1642.09935 1101.32907,1645.26303 1113.23205,1642.98663 C1118.14638,1642.04699 1131.40896,1637.42001 1128.95179,1630.21846 C1127.05506,1624.66202 1112.12283,1621.23652 1107.25945,1619.65541 C1095.81646,1615.93318 1084.00227,1613.26551 1072.43409,1609.94619 C1066.49352,1608.24289 1060.57623,1606.40869 1054.32124,1607.00215 C1049.01242,1607.50397 1043.41975,1611.46912 1038.03961,1611.01238 C1030.08439,1610.33892 1025.98524,1600.34169 1020.14947,1595.93291 C1010.85941,1588.91172 1003.97119,1592.66304 996.84862,1600.40133 C991.582019,1606.12214 986.565793,1614.77825 977.924958,1615.29026 C966.931766,1615.94191 964.793392,1606.5105 969.643672,1598.51185 C974.112568,1591.14448 986.277571,1583.59092 986.92971,1574.4068 C987.343119,1568.60163 978.064702,1553.07124 972.725318,1550.86175 C963.745313,1547.14825 951.053358,1556.98111 942.935107,1559.99933 C928.756917,1565.26777 914.284683,1569.93256 899.928902,1574.69189 C890.110433,1577.9443 875.540669,1578.23376 873.68615,1589.74664 C871.365818,1604.16138 874.192722,1618.79867 874.127217,1633.2745 M312.206547,1411.67587 C315.061108,1405.34706 318.059781,1401.74701 312.352113,1395.87347 C309.161293,1392.59052 304.660373,1390.9745 301.519045,1387.56645 C296.80123,1382.44493 289.40499,1368.44765 299.521871,1364.92178 C309.190406,1361.55156 317.336315,1375.01937 325.118307,1377.97796 C334.993547,1381.73219 341.113168,1375.43683 342.525164,1365.9938 C344.34038,1353.85982 342.344662,1341.18183 343.791594,1328.89802 C345.207957,1316.85422 349.411922,1306.85409 352.637678,1295.32375 C354.824089,1287.50546 357.499603,1279.63481 347.579238,1277.90097 C338.481323,1276.31113 327.927743,1280.093 318.70173,1280.60064 C304.312468,1281.39047 289.751438,1282.11775 275.481542,1284.27633 C259.549274,1286.68654 259.838952,1302.98931 255.838781,1316.31749 C246.141132,1348.62774 233.136209,1380.33145 227.080637,1413.64244 C224.469172,1428.00482 231.390865,1437.84204 239.446523,1449.13674 C249.532834,1463.27657 260.025277,1477.38003 271.44789,1490.47984 C279.075582,1499.2276 287.669836,1507.37462 298.778025,1511.39649 C311.360805,1515.95219 316.16887,1510.89321 313.266272,1498.48286 C309.433502,1482.1001 303.65014,1466.27588 304.331392,1449.21238 C304.580311,1442.99993 306.386793,1436.32348 301.909163,1431.12341 C298.804227,1427.51754 293.483767,1426.30152 289.432647,1424.10804 C282.752595,1420.48617 272.402807,1408.83656 285.41792,1406.33034 C294.256726,1404.62705 303.65014,1410.57476 312.206547,1411.67587 M612.762334,769.937738 C620.704449,778.810585 629.33655,787.300882 636.866712,796.519915 C641.184218,801.80726 644.242573,808.162255 648.875959,813.171777 C659.023409,824.146471 669.133011,811.986306 678.118839,804.877846 C713.459505,776.91965 746.714202,746.622513 780.385219,716.6992 C796.428117,702.441552 813.494349,689.292283 829.28105,674.764087 C845.273,660.048252 858.587979,642.820382 873.569697,627.138716 C880.765055,619.609887 889.378233,612.140695 893.820926,602.52311 C897.610026,594.320817 898.447034,585.39706 902.76454,577.286405 C910.240842,563.241124 923.951763,546.935449 920.807524,529.947583 C911.549486,539.659715 896.129613,574.463094 879.976084,558.141419 C868.447207,546.491807 880.222092,529.27121 879.709697,515.688481 C868.763087,520.335817 871.607459,539.185526 859.937382,542.520844 C853.625613,544.324505 848.226547,538.606609 845.283189,533.592723 C840.19418,524.92497 842.060344,515.852847 844.371942,506.657086 C845.946973,500.392274 855.999805,479.724359 846.057604,477.174506 C837.440059,474.965022 830.219955,490.822691 827.363937,496.441676 C822.129361,506.745815 818.078242,517.403414 812.331271,527.48355 C802.421095,544.865603 791.007216,561.470919 780.124655,578.253691 C757.710305,612.818522 732.151716,645.261143 705.860927,676.941571 C677.779669,710.780574 647.382445,742.687915 612.762334,769.937738 M861.736586,879.87377 C860.604077,910.320727 834.458855,933.410494 811.839256,950.338723 C782.931179,971.973924 756.263373,996.564802 721.785917,1008.8777 C708.513151,1013.61812 691.938935,1012.25229 686.61993,1027.20231 C684.542694,1033.04675 686.429238,1035.19514 688.681154,1041.0774 C692.203866,1050.28189 694.323316,1060.26457 695.995877,1069.95198 C701.681709,1102.91388 696.153089,1136.47942 676.36185,1163.9227 C665.840294,1178.51054 652.39576,1190.9107 638.495602,1202.21849 C624.630381,1213.49864 611.514828,1226.65664 596.228876,1235.98768 C563.624862,1255.88904 527.406429,1267.31465 489.810936,1272.81436 C470.258426,1275.67549 450.625855,1278.22388 430.878286,1279.23335 C420.637673,1279.757 410.379593,1279.853 400.133158,1279.40354 C395.555087,1279.20281 378.53107,1275.33221 375.223796,1277.9577 C372.67638,1279.97809 371.542416,1292.21244 371.032933,1295.58703 C369.951373,1302.72312 369.098352,1309.76176 367.625218,1316.83677 C364.66876,1331.03769 360.68169,1347.10482 365.042866,1361.43228 C366.304929,1365.57488 367.325351,1368.94947 371.161032,1370.34149 C373.590539,1371.22441 377.897855,1369.67239 380.35502,1369.4193 C385.91421,1368.84765 391.161887,1368.62511 396.753101,1369.21711 C415.100319,1371.16041 433.1171,1375.85284 451.660833,1374.57428 C491.192363,1371.84842 530.764651,1369.06438 569.935176,1362.87521 C588.988392,1359.86426 607.270105,1354.16673 626.007441,1349.76667 C643.865555,1345.57316 661.714936,1341.33746 678.38377,1333.45809 C711.040188,1318.02079 741.221973,1297.60015 768.182368,1273.67837 C796.965258,1248.13911 816.018474,1217.86525 834.023611,1184.08297 C849.840881,1154.40694 863.177695,1124.36871 862.484798,1090.15734 C862.045187,1068.50614 858.944618,1041.68105 871.453158,1022.58697 C877.168104,1013.8654 888.695525,1005.78238 899.433976,1010.39481 C918.925347,1018.76583 900.512624,1035.34351 893.078537,1044.42436 C882.3692,1057.50817 883.808854,1077.4299 882.699636,1093.43011 C881.386625,1112.31037 877.146269,1128.87059 873.012177,1147.12975 C868.96688,1165.00053 877.127345,1186.20082 877.933784,1204.43089 C878.810096,1224.19988 878.233652,1243.98924 878.013846,1263.76551 C877.574235,1303.09986 879.39964,1342.32948 879.264263,1381.65656 C879.192936,1402.05392 879.714064,1422.55165 878.424344,1442.92138 C877.251077,1461.49473 873.448877,1479.26369 870.121223,1497.49812 C866.854708,1515.398 862.094679,1536.83247 863.195163,1555.02763 C907.856461,1538.01649 951.328479,1517.92167 996.678307,1502.72437 C982.533597,1490.38384 981.90475,1472.94361 980.763507,1455.53828 C979.26126,1432.58524 975.485261,1409.82857 973.837447,1386.87699 C970.584033,1341.54838 971.498191,1293.86337 975.35134,1248.58566 C979.489799,1199.9741 986.826357,1151.52544 988.335883,1102.70878 C989.062261,1079.19283 987.244134,1055.61724 983.417187,1032.41256 C980.19143,1012.86175 977.392184,988.26069 967.203976,970.939728 C957.468479,954.388232 939.573974,943.873181 924.640293,932.598846 C902.802387,916.112805 882.575904,897.572918 861.736586,879.87377 M864.441213,244.058626 C870.032428,251.62382 876.350019,258.607187 883.035895,265.216731 C889.934297,272.037187 892.871832,270.530257 901.12546,266.982573 C917.538097,259.925023 917.223673,251.762003 908.06171,237.610539 C886.811893,204.788277 878.750413,165.701203 856.264736,133.549496 C834.109495,101.871976 801.883954,76.2774484 768.052814,58.0110196 C731.747041,38.4093 692.403292,32.1721247 651.481601,32.7568599 C630.569499,33.0565003 609.522021,34.5008835 588.740928,36.8456425 C568.524635,39.124946 550.542789,45.7635812 530.972812,50.7760127 C521.122318,53.2982286 510.961767,55.3913478 501.384938,58.8575765 C492.981377,61.8976176 485.426469,66.5929538 476.935567,69.4337195 C458.34962,75.6476217 439.645764,82.5931702 422.877944,92.7562167 C406.481319,102.69526 391.710673,113.294676 376.820662,125.495569 C361.399333,138.131376 348.007204,152.816665 331.33109,163.910633 C316.148491,174.014043 304.075195,187.6215 290.310414,199.460205 C275.926976,211.828372 262.662944,226.984941 251.873546,242.614243 C241.324332,257.897359 237.308149,277.672172 230.935242,294.907314 C223.517166,314.967222 216.158773,336.411875 213.363894,357.680526 C208.15552,397.313062 219.84452,443.635143 234.706873,480.312003 C249.406191,516.587403 273.229626,546.853994 301.655877,573.412898 C315.51382,586.364346 330.635282,598.120141 347.576326,606.780622 C362.06894,614.190177 380.9664,627.512539 396.741455,618.203322 C403.128919,614.434544 408.312547,610.051939 415.697142,608.354462 C423.767356,606.501346 431.674535,607.259174 438.188642,601.33764 C443.725996,596.306299 446.373853,590.232035 453.644907,587.193448 C462.265362,583.59049 472.460849,582.934482 481.691229,582.963573 C502.421373,583.031937 523.161706,588.224735 542.944211,593.981904 C561.073079,599.257611 576.245489,607.212628 595.50541,602.392199 C609.817521,598.809605 632.773378,589.285113 635.857935,572.865982 C638.616423,558.192329 627.975502,539.22189 622.617195,526.088622 C615.210764,507.942922 608.501598,490.08959 603.849289,471.011514 C600.160631,455.894218 594.36999,431.709164 604.77946,417.89225 C615.006971,404.315339 638.65427,404.479705 653.34631,407.893569 C662.974087,410.13069 671.825994,414.638388 681.459593,416.908964 C691.273695,419.224631 701.426968,420.386829 711.439041,421.52139 C746.13048,425.448716 795.487757,416.571505 793.640516,372.208723 C791.995613,332.670734 770.223213,293.036743 782.973394,253.450753 C788.170122,237.315262 798.784841,218.654646 816.460997,214.39568 C830.480519,211.016725 849.427471,214.558591 861.796268,221.896872 C871.721001,227.786406 881.556938,240.121119 864.441213,244.058626 M167.76078,420.658833 C132.789853,427.486561 109.662227,464.372878 103.252928,497.083139 C100.348874,511.905157 99.3226293,529.556305 104.940046,543.898317 C111.414849,560.432359 129.71403,567.331361 145.861736,570.799045 C164.321041,574.764189 180.678363,573.215077 195.312176,560.409086 C201.744765,554.77701 207.19478,548.216921 211.817976,541.050279 C216.544525,533.720725 223.119769,528.379562 218.365563,520.187451 C206.5834,499.89045 196.529113,479.949816 188.768956,457.619332 C185.305926,447.654107 182.228647,437.918702 179.93015,427.656745 C178.106201,419.506817 177.222611,414.533659 167.76078,420.658833 M474.038791,642.080009 C467.271399,648.600824 459.496685,653.796531 450.762687,657.300578 C441.181492,661.144994 438.274526,659.299151 438.749073,670.388755 C439.276025,682.636193 439.363365,692.437053 433.785251,703.832116 C431.173786,709.166007 421.528541,716.36465 423.351035,722.364731 C425.965412,730.978665 452.752583,739.685692 460.5666,742.696642 C479.263178,749.904012 501.077793,750.050923 518.724835,739.868967 C539.223528,728.040444 541.037288,706.597245 533.314979,685.846419 C532.491071,683.632571 529.49531,679.889974 530.231877,677.473942 C531.584191,673.041882 537.155026,673.681891 540.350214,675.37355 C547.289375,679.047781 550.189062,690.220296 551.682576,697.193481 C555.672557,715.819188 548.343277,735.992551 534.411095,748.826179 C527.33219,755.346995 518.477372,759.703417 509.446418,762.843824 C504.319562,764.62712 498.94233,766.036594 493.527252,766.582056 C489.152975,767.021335 483.630177,765.642407 479.45387,766.888969 C472.092566,769.083908 471.763585,778.170576 469.922167,784.812121 C466.635273,796.682827 465.262579,809.532455 464.831702,821.813348 C464.132982,841.67689 466.496984,866.984868 477.915231,883.824369 C504.556835,923.115082 556.081599,936.753084 596.308938,956.972994 C617.694131,967.72223 637.521762,981.226413 656.561877,995.661517 C658.442598,997.086991 661.256401,999.882665 663.514139,1000.99395 C671.146197,1004.75109 664.482157,1003.3838 669.367373,1000.90086 C673.128815,998.989562 676.348749,994.838233 680.235378,992.673841 C689.187726,987.687591 699.242013,984.996646 708.347205,980.285309 C729.518416,969.329525 748.248474,955.733705 767.038215,941.224418 C786.290857,926.354398 805.790963,912.778942 823.353577,895.853622 C830.760007,888.71898 839.099519,882.836719 846.612213,876.007536 C854.180222,869.127443 844.494218,866.270677 838.086375,861.207335 C816.274671,843.970739 794.736633,826.187226 771.445972,810.95211 C763.675626,805.868405 756.823804,799.014494 748.717199,794.521343 C740.252499,789.83037 735.228995,794.032609 728.560587,799.999235 C721.273522,806.518596 714.327082,812.909955 706.21611,818.488212 C695.505317,825.857039 683.053548,829.404724 672.284529,836.418637 C679.197488,843.660916 696.055559,846.084222 698.501078,857.053097 C700.981534,868.170339 684.437886,876.845365 676.705387,881.139241 C663.051237,888.720435 647.990914,893.324133 632.77629,896.612905 C620.11636,899.348942 601.348454,895.229614 591.20246,904.791925 C588.310051,898.66966 585.598145,895.471072 590.359629,889.614992 C595.113836,883.767641 603.591636,882.761081 610.302258,880.512324 C628.426759,874.435151 646.277594,866.339041 663.814006,858.74912 C661.486396,853.298865 655.669553,849.567905 651.234138,846.018766 C644.903445,840.949607 639.582985,835.333531 634.429926,829.032355 C624.595445,817.00892 615.778474,804.185473 606.414173,791.810033 C602.352864,786.442688 598.648193,781.082616 591.231574,784.054292 C584.685442,786.678328 578.293611,793.482783 572.002222,797.00574 C557.773084,804.976757 545.324226,812.629224 529.661256,817.701293 C523.349487,819.744957 497.507043,825.563217 504.3807,809.755003 C506.418632,805.069849 513.226784,803.139641 517.422014,801.090159 C525.171981,797.302471 532.897202,793.440601 540.36477,789.114724 C555.704582,780.23024 569.232089,768.750812 583.583503,758.416127 C599.415329,747.0167 615.516454,735.951824 630.380263,723.282561 C615.590693,713.478792 599.183878,706.300513 583.889193,697.333119 C568.431472,688.269724 552.857299,680.077613 536.86826,672.026595 C524.137003,665.616327 511.197585,658.781325 499.588646,650.496122 C494.974184,647.201532 479.098687,633.509711 474.038791,642.080009 M939.076136,323.230606 C937.12991,323.720795 935.204063,324.276438 933.295685,324.897538 C946.261305,344.733442 931.946282,369.290865 936.00468,390.755883 C947.974624,383.672151 949.542376,356.119778 967.71637,361.213665 C987.290715,366.700285 977.550852,390.809702 983.475413,404.600434 C992.727628,396.508688 1003.52867,404.070972 1007.34543,413.669647 C1011.47807,424.071242 1005.74711,433.672827 1007.67441,443.966784 C1009.66722,454.618565 1015.61361,447.627925 1018.9107,441.347112 C1023.11175,433.339731 1026.7844,422.514858 1025.23557,413.356916 C1023.35194,402.216401 1015.87855,391.859898 1011.24807,381.741943 C1006.64817,371.687989 1002.29136,361.428941 995.633138,352.509547 C983.022701,335.619137 961.120746,320.445114 939.076136,323.230606 M1064.46141,561.108732 C1055.99816,539.966628 1043.47216,520.607821 1035.46745,499.298442 C1033.12674,493.067085 1031.81955,483.133859 1025.63005,479.295262 C1021.56292,476.773046 1016.1493,478.287248 1011.66439,476.930139 C1007.19258,475.578848 1002.47914,472.355532 999.272304,469.03185 C993.404513,462.950314 991.501957,454.602564 984.583176,449.306493 C975.652663,442.470037 968.752805,439.84891 964.50517,428.427665 C961.170239,419.457362 961.162961,418.14098 951.137787,420.142462 C940.192632,422.328673 931.302878,419.652274 923.752337,411.096522 C910.965764,396.611962 909.552312,376.204413 915.827689,358.719086 C918.762313,350.542975 923.86879,341.030119 919.626978,332.468549 C915.68649,324.514987 906.118395,318.805819 900.055545,312.466824 C884.73029,296.444789 872.7356,277.69399 858.365262,260.883581 C854.925523,256.861709 851.410089,252.848563 848.757865,248.237592 C847.075115,245.309552 846.080895,240.272393 842.178253,239.443291 C835.460353,238.016363 826.082951,249.639793 822.702894,253.874032 C797.966756,284.856269 815.664747,327.054658 818.676521,361.98313 C820.210793,379.769552 823.657811,401.094932 815.775378,417.842795 C808.347113,433.624826 789.547183,441.502751 773.702255,445.896992 C752.331618,451.824345 729.378672,451.562523 707.632473,447.963929 C696.24334,446.080267 685.311286,442.861315 674.529166,438.784169 C663.498127,434.612476 652.023109,427.435652 640.780999,435.006663 C626.269461,444.781341 630.752913,464.388879 633.939367,478.679981 C639.146285,502.025751 648.236921,523.802046 656.279478,546.228531 C663.033769,565.065149 668.502707,588.697469 654.302683,605.552969 C640.120126,622.386651 616.598014,632.920612 594.706249,632.047873 C549.32003,630.236939 507.888855,596.373209 461.508416,610.225032 C470.222034,613.829445 479.434946,615.948746 487.949139,620.075347 C498.227598,625.055778 507.743289,631.675504 517.721881,637.215943 C536.875538,647.848814 556.097612,658.328956 574.818936,669.72111 C591.733778,680.013613 607.725728,691.289401 623.869068,702.694647 C643.986376,716.907202 654.580715,701.165899 667.486652,685.812964 C695.659618,652.302692 722.478814,616.815667 748.07525,581.30246 C770.329476,550.42786 790.985381,518.193242 807.079227,483.702594 C812.837843,471.360609 822.534037,450.425053 839.383374,452.859995 C854.341801,455.020025 863.065609,473.082814 870.799564,484.136055 C876.195719,480.266911 880.821826,475.093023 888.107436,477.222507 C894.149907,478.986894 898.329125,485.190614 901.003184,490.482322 C902.84169,494.118735 904.095019,506.37781 907.169386,508.222199 C909.355797,509.534216 917.715689,506.713815 921.442194,507.574917 C934.193831,510.524775 938.271152,526.926451 938.141598,538.311333 C937.961095,554.003181 931.409141,569.705212 926.039188,584.236317 C914.00374,616.809849 893.384226,642.267648 870.652542,668.007632 C847.583142,694.128712 823.433638,717.804669 797.413603,740.984619 C790.992659,746.705423 784.634309,752.490229 778.374944,758.387036 C773.240809,763.22201 765.110912,768.251897 761.093274,773.931973 C753.65773,784.441206 773.54941,789.21218 780.951473,793.05805 C812.799996,809.608092 842.147684,831.403296 870.195462,853.627597 C899.119552,876.548634 928.20522,899.5584 955.998256,923.843819 C983.187192,947.601231 1008.8666,972.923755 1037.4981,995.017145 C1066.91275,1017.71418 1097.73503,1038.67155 1127.96194,1060.26894 C1158.21942,1081.88814 1187.66027,1104.63317 1217.8799,1126.28001 C1247.41391,1147.43375 1279.11687,1165.56781 1310.18225,1184.35061 C1326.43185,1194.17766 1342.76734,1203.8607 1359.09263,1213.56119 C1372.29407,1221.40421 1386.62219,1233.59492 1402.27206,1234.58693 C1416.37456,1235.48003 1429.74776,1240.67283 1438.17753,1225.33008 C1444.57518,1213.68337 1441.92441,1197.66134 1436.32301,1186.34628 C1429.48574,1172.53664 1418.78951,1159.83974 1410.19671,1147.05993 C1400.31565,1132.36446 1391.14349,1117.24425 1381.39053,1102.47314 C1372.03933,1088.3115 1361.64587,1075.23787 1351.21311,1061.89223 C1340.63624,1048.36041 1332.61115,1033.10784 1323.18426,1018.78038 C1303.03638,988.151598 1282.31934,958.075554 1263.21663,926.760222 C1219.40835,854.941069 1180.17378,780.798975 1142.68018,705.542685 C1139.37727,698.911323 1062.30411,562.28693 1064.46141,561.108732 M1002.78046,1002.66088 C1026.32586,1084.09908 1012.74595,1166.91183 1007.91896,1249.7595 C1005.47927,1291.64807 1005.10807,1333.79845 1004.02505,1375.74375 C1003.4981,1396.13384 1003.5345,1416.53994 1004.38024,1436.9213 C1004.80675,1447.17453 1005.55642,1457.39285 1006.2857,1467.62717 C1006.93056,1476.67602 1004.50397,1486.68052 1005.64521,1495.41228 C1007.1067,1506.59643 1029.29688,1508.79137 1022.47854,1523.14501 C1017.90483,1532.77424 1001.88959,1534.2448 993.309895,1538.30449 C997.123741,1542.72492 1003.09197,1549.34028 1009.45469,1549.75628 C1015.18565,1550.13011 1019.61087,1545.15695 1024.74938,1543.2762 C1029.30998,1541.60635 1035.5839,1539.98597 1038.46466,1545.31404 C1041.47935,1550.8923 1035.16467,1557.09165 1032.66674,1561.41462 C1041.1591,1563.05828 1047.03272,1557.98476 1054.69243,1558.45022 C1062.75246,1558.94041 1063.11783,1566.87651 1068.415,1571.46858 C1074.47202,1576.71956 1085.0489,1577.84975 1092.51646,1580.05924 C1101.20388,1582.628 1109.93497,1585.81495 1117.84651,1590.2761 C1131.99122,1598.25148 1144.13876,1613.31642 1149.36606,1628.73626 C1154.78259,1644.71757 1146.32371,1658.54903 1133.72492,1668.3557 C1129.0304,1672.00812 1122.30085,1676.25399 1116.07497,1674.28451 C1108.95967,1672.03285 1107.84754,1666.23786 1099.17614,1666.66841 C1091.38832,1667.05387 1083.99499,1670.16664 1076.16642,1670.56519 C1064.65938,1671.15283 1053.16253,1669.05535 1041.64238,1669.49754 C995.157135,1671.28374 948.666065,1671.68084 902.257968,1667.20805 C890.250177,1666.05167 878.481115,1665.10475 866.643637,1664.72656 C857.439459,1664.43274 856.669411,1657.56283 855.110393,1648.94017 C851.343128,1628.11225 859.673906,1607.6087 855.548548,1587.36988 C855.822213,1588.70517 849.306651,1585.23022 848.522047,1584.56984 C843.737272,1580.5407 842.13895,1574.81553 840.715309,1568.86781 C836.920387,1553.0276 836.95969,1536.88775 838.132957,1520.73334 C840.799737,1484.06521 847.618078,1447.73745 847.059102,1410.87586 C846.776703,1392.2967 847.33859,1373.76118 847.344413,1355.18929 C847.34878,1338.12869 848.891786,1321.2921 849.035897,1304.35078 C849.350321,1267.20701 853.257329,1230.47924 854.347623,1193.37474 C846.620947,1200.89629 842.523246,1211.38225 837.616195,1220.76856 C831.579547,1232.30908 824.84709,1243.72887 817.47414,1254.46793 C802.252238,1276.64423 781.827784,1294.69102 760.669675,1311.05196 C720.292403,1342.2742 676.425899,1366.45344 626.956536,1379.6958 C573.404028,1394.02909 519.245964,1403.70776 464.036908,1409.14493 C451.263437,1410.40313 438.347309,1411.08386 425.544724,1409.83875 C417.161542,1409.0242 403.53505,1402.24738 395.569644,1405.68597 C386.516855,1409.59439 384.695817,1418.99379 372.824858,1416.35812 C368.29628,1415.35156 365.015209,1412.32315 361.049974,1410.28385 C355.215663,1407.28017 354.984212,1409.35293 349.414833,1409.73548 C343.20496,1410.16167 339.482822,1407.05908 334.070654,1412.06133 C329.475116,1416.31011 329.92055,1419.28615 334.118691,1423.26294 C340.018507,1428.85138 349.46287,1429.78957 355.368508,1435.62528 C361.114023,1441.30245 360.084867,1448.28 351.209669,1448.36437 C342.277701,1448.44873 334.341408,1442.08792 325.614689,1441.25882 C327.47503,1467.09335 335.242466,1495.95628 326.629288,1521.30353 C322.633484,1533.06224 314.058154,1540.63761 301.271581,1540.55616 C279.874743,1540.41943 261.105381,1520.72171 248.219823,1505.37896 C241.095792,1496.89739 235.321164,1487.36853 228.443141,1478.6775 C221.410817,1469.79302 213.86901,1460.85908 209.842637,1450.11421 C205.560067,1438.68133 206.810484,1427.21063 209.205055,1415.47519 C212.168792,1400.94991 214.922912,1386.27771 218.505307,1371.8906 C225.450291,1343.99205 239.423232,1318.52552 246.477391,1290.71133 C249.145627,1280.18755 249.112147,1267.83829 255.846059,1258.81562 C262.975913,1249.26058 274.06809,1248.64821 285.070016,1249.25913 C298.686318,1250.0155 312.292431,1251.52243 325.838862,1253.06427 C334.390901,1254.03737 353.13406,1260.21055 360.095056,1254.94939 C362.491083,1253.13845 362.49545,1248.39221 365.297608,1246.75437 C367.999324,1245.17471 372.363412,1246.30927 375.315503,1246.52891 C389.940583,1247.61402 404.692305,1248.93331 419.346497,1249.36095 C473.813163,1250.95515 531.287235,1242.46049 579.916679,1217.14088 C602.483874,1205.3909 619.673837,1186.89319 637.811439,1169.42241 C655.646263,1152.244 671.191323,1133.75211 675.989199,1108.81359 C680.370755,1086.04383 678.712751,1058.81292 671.435875,1036.7748 C664.348236,1015.30542 639.189955,1002.30161 620.880585,991.716737 C595.487942,977.037265 568.533369,964.871283 541.177032,954.332958 C536.83478,952.660209 531.556534,950.530725 526.780493,951.386009 C520.925803,952.434751 516.991137,957.511183 511.666309,959.752668 C505.332705,962.417431 497.56527,962.430522 490.883762,963.986907 C484.404591,965.493837 478.091366,967.568046 471.491375,968.564424 C450.710283,971.701921 421.506706,969.197159 404.332755,955.914071 C376.258775,934.204686 393.221654,903.476998 402.239507,877.053368 C392.704893,876.730454 384.764233,878.961757 375.663407,874.878793 C366.596062,870.810374 359.506967,863.605913 355.372875,854.583246 C347.851447,838.165569 352.196611,819.29986 354.415047,802.179628 C355.418001,794.439887 356.56361,786.759783 359.514246,779.488412 C361.799642,773.857791 365.553805,768.4919 366.939599,762.53691 C368.466593,755.978276 366.486887,755.595726 361.019405,752.459683 C352.591097,747.624709 346.526791,742.062452 341.36791,733.576519 C331.26413,716.953748 331.0123,698.809503 339.292129,681.322721 C342.644529,674.244807 350.639048,664.515221 349.729257,656.248928 C348.947564,649.137559 340.903552,643.600029 336.166814,638.942512 C321.541735,624.564135 305.989396,611.28832 289.770362,598.74415 C282.189252,592.880798 273.83955,587.559999 266.951337,580.899545 C261.903086,576.020934 256.774774,565.406972 249.872005,562.841119 C242.961957,560.272357 238.360595,567.996098 233.546707,572.134336 C226.042747,578.585332 218.853211,586.009432 210.676734,591.602235 C196.010896,601.632916 177.826713,599.756527 161.265597,596.55212 C143.965003,593.203711 127.919194,587.308359 113.168927,577.581682 C107.308415,573.716902 100.463872,565.868069 93.2481338,565.239697 C85.5403808,564.569142 77.1673883,572.236155 71.659147,576.838399 C57.2786197,588.856016 52.9611134,607.520996 44.5852096,623.665214 C35.2325536,641.694549 31.2600403,660.407529 33.804545,680.67544 C36.0943081,698.909868 43.1120753,712.686054 53.5535696,727.414981 C55.7108671,730.462295 60.7663961,736.216554 57.0719151,739.585327 C52.5520712,743.709019 43.2896666,735.441271 40.2546023,732.77069 C10.1062977,706.237967 -7.02835026,666.25779 2.75809424,626.233976 C8.0115939,604.744231 18.2885979,584.86178 30.2221502,566.371349 C35.2966029,558.506515 40.247324,550.641681 49.0730288,546.631445 C59.1185819,542.065565 70.5018923,542.609573 81.2330642,541.514285 C73.8106218,505.15743 71.4873784,465.596168 94.2947579,433.909921 C111.796234,409.593956 147.637649,388.318032 176.043521,408.036116 C174.878988,381.23139 171.060776,355.777955 178.189174,329.38778 C181.384361,317.560711 185.760094,306.052192 191.138781,295.045498 C196.408293,284.258443 203.685169,275.112137 207.942993,263.882894 C224.73847,219.594296 256.964011,180.031579 291.384696,148.244967 C326.179487,116.113623 360.319229,76.9145479 404.14643,56.8124579 C449.87182,35.8376288 496.437129,16.989374 546.012756,7.45906326 C597.469104,-2.43343415 650.359283,-4.46400707 702.19556,4.90193777 C747.635639,13.1129579 789.689838,40.720604 824.074131,70.4839155 C863.310161,104.446557 888.638754,145.39111 908.676001,192.818661 C913.077936,203.236256 917.322659,213.744035 922.720269,223.700533 C928.710336,234.747955 936.403532,245.021548 940.808379,256.876254 C944.735766,267.448034 945.396639,278.915825 938.400707,288.361771 C933.48201,295.003315 923.391331,296.502972 919.089838,302.577236 C916.917983,305.64055 917.136333,308.554044 921.909463,309.467511 C926.838349,310.408614 929.187795,304.908904 932.732342,302.702328 C941.550769,297.208436 953.996715,301.889227 962.914127,305.009269 C984.059136,312.407187 1000.61152,325.693185 1013.26562,344.110888 C1025.37531,361.735854 1033.41787,381.759398 1041.41239,401.47021 C1046.45773,413.905287 1051.25997,426.258908 1054.03738,439.432905 C1055.08255,444.390063 1056.53967,457.825881 1048.71255,451.937801 C1045.53775,449.55086 1041.00189,467.664559 1041.85782,470.548962 C1044.83466,480.581097 1055.44938,489.986316 1061.69564,498.107153 C1076.38477,517.201229 1086.22071,538.590609 1096.5836,560.183628 C1119.0256,606.946443 1144.01794,652.34342 1168.02915,698.297496 C1216.92644,791.878398 1270.36395,881.865069 1326.41438,971.312097 C1354.18558,1015.62833 1382.81563,1059.18819 1412.50249,1102.24623 C1425.60203,1121.24576 1438.74087,1140.25693 1451.5551,1159.44991 C1462.44494,1175.75995 1473.19212,1193.92165 1470.38997,1214.27829 C1467.82508,1232.91709 1456.75765,1247.88893 1438.86315,1253.98501 C1429.27467,1257.25196 1417.89136,1261.01783 1407.62746,1260.01418 C1396.40573,1258.91744 1386.50429,1251.40461 1377.15017,1245.76381 C1334.16289,1219.84055 1291.16979,1193.94202 1248.1563,1168.0653 C1200.0509,1139.12673 1156.05484,1104.76554 1110.15768,1072.5891 C1086.80589,1056.21797 1062.7248,1041.46286 1038.39188,1026.64375 C1032.91275,1023.30698 1008.05143,999.396841 1002.78046,1002.66088"
           id="ink-shape" />
        <path
           d="M586.25003,1085.04638 C574.50012,1102.3598 562.14447,1118.62944 545.604101,1131.76486 C528.180664,1145.60143 509.958817,1156.81265 490.505054,1167.54969 C456.195319,1186.48515 410.207196,1203.25211 370.356758,1194.66913 C359.024299,1192.22883 340.894408,1182.30715 350.746816,1168.13952 C355.697834,1161.02101 366.320919,1162.87726 373.840861,1163.26904 C385.954215,1163.90224 396.549568,1164.59183 408.156435,1160.51358 C429.484345,1153.0163 450.961136,1145.9455 471.786938,1137.12109 C491.958832,1128.57136 509.650838,1116.84692 528.15731,1105.32922 C545.513605,1094.52568 558.753782,1081.597 574.000932,1068.5382 C578.176893,1064.9616 585.356745,1058.70326 589.306466,1065.65841 C592.161475,1070.68358 587.814738,1080.13253 586.25003,1085.04638"
           id="path1" />
        <path
           d="M1027.71578,260.620537 C1023.91732,267.218564 1015.47712,280.022604 1006.26587,274.501955 C994.516288,267.459569 1009.75377,244.967436 1012.62049,236.491497 C1025.11168,199.563421 1025.99562,160.004199 1019.88342,121.820404 C1016.84305,102.836716 1011.33413,84.2994259 1009.26027,65.1557743 C1008.85722,61.4359798 1006.9977,51.8977212 1011.66299,49.7195076 C1017.26621,47.1039074 1022.88148,56.172278 1024.70771,60.1590581 C1031.76789,75.574608 1034.49015,95.8234924 1038.26839,112.314534 C1043.31558,134.332123 1046.65165,156.859873 1046.69339,179.50301 C1046.73933,206.853724 1041.51171,236.651483 1027.71578,260.620537 Z"
           id="path2"
           transform="translate(1024.284696, 162.551353) rotate(-20.000000) translate(-1024.284696, -162.551353) " />
        <path
           d="M1083.14085,132.953594 C1082.01032,139.734155 1081.49602,159.11652 1070.63828,156.90011 C1058.32854,154.387397 1065.18023,124.273891 1064.71493,115.465997 C1064.46807,110.821995 1061.80528,89.7958151 1067.9563,87.6686082 C1080.76441,83.2408438 1082.65698,126.989688 1083.14085,132.953594"
           id="path3"
           transform="translate(1073.184576, 122.215059) rotate(-20.000000) translate(-1073.184576, -122.215059) " />
        <path
           d="M501.352202,1040.88749 C489.557712,1051.64085 475.86396,1051.00969 460.97492,1049.98626 C453.414538,1049.46717 435.90613,1044.9871 448.073139,1035.60371 C454.429433,1030.70187 504.295691,1027.33076 501.352202,1040.88749"
           id="path4" />
        <path
           d="M1420.453,1237.79436 C1421.29182,1236.12539 1428.36986,1228.11524 1429.89557,1231.35518 C1431.33559,1234.40969 1422.32152,1237.7039 1420.453,1237.79436"
           id="path5" />
        <path
           d="M482.282105,643.277077 C480.830801,646.271001 474.772564,643.65749 472.684449,644.111059 C475.520249,638.033594 478.891938,639.335778 482.282105,643.277077"
           id="path6" />
        <path
           d="M938.170777,325.398529 C937.539991,327.798575 936.910417,330.200115 936.282057,332.601654 C935.31283,330.802368 934.342389,329.004575 933.371949,327.205288 C934.970749,326.60453 936.571976,326.000782 938.170777,325.398529"
           id="path7" />
        <path
           d="M949.754796,779.038745 C964.892607,780.567536 980.0813,781.340684 995.280168,781.80749 C1008.10798,782.201358 1013.3778,779.773965 1015.01616,766.432057 C1016.95691,750.613158 1017.62127,734.652758 1019.56201,718.829482 C1020.44153,711.640665 1027.41077,697.273242 1019.01686,693.425007 C1011.98221,690.201126 1001.00791,694.819591 993.640348,695.362253 C985.432522,695.969101 973.04519,693.462935 965.79102,698.332308 C958.033854,703.538658 959.721648,721.767445 958.400197,730.323129 C955.880863,746.632175 952.843997,762.831813 949.754796,779.038745 M942.534061,702.212636 C928.813648,703.249821 915.046715,704.068191 901.365552,705.531337 C895.277282,706.183407 882.952461,709.197226 877.820753,704.764024 C865.772143,694.35862 910.798882,690.707319 915.90733,689.886031 C924.514934,688.503118 939.247151,690.339709 944.767008,682.207067 C950.225808,674.16487 948.846207,660.649368 950.25779,651.311783 C952.380253,637.257995 954.809455,623.22463 956.226853,609.07894 C956.702227,604.324809 956.02333,588.619694 961.040192,586.287121 C972.57127,580.923224 968.948546,636.197469 968.758106,640.346211 C968.433922,647.479595 968.077755,654.64653 967.08485,661.720105 C966.523705,665.706923 964.555339,671.099995 965.769213,675.105776 C969.246563,686.590671 988.998551,679.966397 997.994304,679.05029 C1008.07746,678.021857 1023.64848,681.93136 1026.98627,669.482219 C1031.18032,653.836913 1030.56975,636.069098 1032.1238,619.973032 C1032.5541,615.520867 1033.67785,582.276963 1041.87549,584.85315 C1051.02971,587.731303 1047.45641,615.512114 1047.37355,622.664462 C1047.27905,630.737294 1047.31103,638.813044 1046.76297,646.871288 C1046.27306,654.109703 1044.23492,662.9834 1045.7439,670.154712 C1048.39116,682.729307 1063.28911,676.042306 1067.61254,686.043632 C1071.72081,695.550434 1049.32301,688.09758 1045.1406,691.363765 C1038.89532,696.240433 1040.39849,716.61507 1039.5059,723.748454 C1037.54771,739.418559 1033.78688,755.692594 1032.56428,771.316018 C1031.60045,783.648458 1041.50915,782.011718 1051.59085,781.118951 C1060.2377,780.353097 1069.73791,778.29769 1078.40366,779.451577 C1085.36854,780.377896 1095.09698,786.796483 1084.95858,791.069219 C1069.10844,797.750385 1036.83537,784.100676 1028.87178,804.392164 C1027.37006,808.219975 1020.38047,852.610339 1011.59696,830.6967 C1007.92627,821.537084 1016.91475,807.166744 1007.33023,800.148602 C1004.00698,797.713916 999.055535,798.144253 995.200212,797.87438 C985.705826,797.212099 976.150382,796.985989 966.638551,796.789056 C957.152887,796.59358 948.6296,794.682592 944.966171,805.079244 C942.112476,813.179793 942.429392,822.244588 940.149925,830.533318 C938.440325,836.747677 932.824521,847.625723 927.000832,837.459556 C923.176038,830.782767 926.103873,819.114068 926.859819,811.853771 C927.236338,808.218517 929.402413,800.695641 926.646119,797.642436 C923.687755,794.36458 915.769224,796.138444 912.027293,796.434575 C901.221632,797.290872 881.100394,802.495763 872.830058,792.689913 C865.911702,784.485791 880.295021,784.328244 885.950076,783.773912 C891.775219,783.202074 897.603269,782.673999 903.425504,782.061316 C909.833597,781.385906 918.319087,782.288884 924.350661,780.278699 C934.480333,776.901647 933.757823,763.12065 934.423637,754.181309 C935.724735,736.718376 939.651292,719.469882 942.534061,702.212636"
           id="path8" />
        <path
           d="M1120.52625,739.508259 C1119.70881,749.590999 1118.61614,760.894564 1115.363,770.476152 C1112.90102,777.719525 1107.93141,779.919342 1106.23707,770.697591 C1105.16376,764.852778 1112.30074,731.91379 1120.52625,739.508259"
           id="path9" />
        <path
           d="M480.908945,673.121574 C476.868863,670.219683 457.734152,654.951203 471.564294,654.347264 C478.62659,654.038584 493.840793,665.662551 494.277236,672.110535 C494.387841,673.738935 490.908259,674.581467 491.098082,676.156183 C491.458296,679.155002 495.894464,680.576124 497.323365,682.959074 C500.475615,688.218565 499.167782,698.606321 495.097807,703.604851 C485.815933,715.005137 475.510212,695.705921 482.695071,691.919744 C481.094283,692.763768 459.609957,681.834703 458.802838,679.366754 C454.384606,665.842988 479.823818,678.58387 480.908945,673.121574"
           id="path10" />
        <path
           d="M514.636849,726.343092 C509.729112,726.496758 499.872216,726.157076 496.197126,722.649734 C489.362574,716.132439 502.691737,715.26706 506.591074,712.231497 C512.057288,707.977395 513.129962,694.142128 521.709933,702.702902 C530.219915,711.194931 522.735473,721.072643 514.636849,726.343092"
           id="path11" />
        <path
           d="M443.89148,690.420303 C452.764259,689.118871 472.505031,708.257978 462.924909,709.530731 C456.585599,710.373316 445.275166,695.534535 443.89148,690.420303"
           id="path12" />
      </g>
    </g>
    <g
       id="Character/selfie"
       transform="translate(1517.000000, 415.000000)">
      <path
         d="M1129.93692,829.283347 C1132.65229,828.216414 1140.64387,823.16506 1143.57399,823.73168 C1148.39262,824.66399 1156.38018,838.449725 1159.65147,842.367839 C1170.19587,855.00426 1180.74227,867.640681 1191.28866,880.277102 C1195.50923,885.334484 1201.59624,890.645035 1204.60261,896.498096 C1206.9166,901.000913 1207.70934,907.209617 1209.0901,912.03593 C1226.23929,971.985089 1243.01118,1032.32204 1255.50229,1093.44061 C1258.19157,1106.59542 1260.74237,1119.84267 1262.23753,1133.19641 C1262.97407,1139.79692 1264.91277,1149.49576 1262.03885,1155.87525 C1258.79766,1163.06449 1248.36967,1166.05231 1241.59429,1168.28061 C1228.4148,1172.61866 1214.61517,1175.2006 1200.96205,1177.51932 C1168.06451,1183.10314 1134.75555,1186.34613 1101.5068,1188.97026 C1091.34974,1189.77197 1080.89365,1189.7579 1070.80082,1191.12422 C1065.98018,1191.77523 1067.42517,1190.48125 1065.90593,1193.71821 C1063.79063,1198.22103 1065.19347,1207.61647 1064.9426,1212.52516 L1064.9426,1212.52516 L1063.16848,1247.16531 C1061.55491,1278.66092 1059.94134,1310.15653 1058.32978,1341.65214 C1056.69413,1373.58377 1055.0605,1405.5154 1053.42284,1437.44702 C1052.80471,1449.54496 1052.18457,1461.6449 1051.56644,1473.74484 C1051.23529,1480.21073 1052.22069,1488.56134 1050.48671,1494.82228 C1049.17418,1499.55818 1051.33163,1498.16172 1045.52559,1498.44302 C1032.07918,1499.09202 1018.1471,1497.4645 1004.69667,1496.98227 C989.442025,1496.43775 974.185369,1495.89122 958.926707,1495.34671 C954.569669,1495.18998 949.700865,1496.4257 947.944804,1493.30125 C945.807428,1489.49767 947.435045,1479.03931 947.284526,1474.79168 C946.861064,1462.95495 946.437603,1451.11622 946.014141,1439.2795 L946.014141,1439.2795 L942.52811,1341.79681 C940.942638,1297.48193 939.355159,1253.16505 937.769687,1208.84615 C920.805136,1212.26194 903.838579,1215.67573 886.872022,1219.08951 C861.803502,1224.13483 836.732976,1229.18016 811.662449,1234.22348 C800.164767,1236.53818 786.509638,1241.81859 774.636661,1240.11471 C762.84396,1238.42289 757.969136,1233.3856 757.30685,1222.19185 C756.596398,1210.19237 756.873354,1198.09846 757.033908,1186.08894 C757.298822,1166.44412 757.862769,1146.80331 758.605332,1127.17055 C792.100936,1124.1546 825.598547,1121.13665 859.094152,1118.1187 C876.929708,1116.51127 894.767271,1114.90584 912.600821,1113.29841 C916.648792,1112.93473 926.62723,1113.71634 928.433464,1110.66423 C931.243162,1105.9203 928.11637,1090.3242 928.032079,1084.95939 C927.765158,1068.05323 927.500243,1051.14707 927.233322,1034.24091 C926.257956,972.035321 925.28259,909.83174 924.305216,847.626149 C932.324895,847.889366 940.344573,848.128472 948.364252,848.353512 C983.25467,849.338064 1018.31768,850.76466 1053.21814,849.691699 C1070.72054,849.155219 1087.30378,844.433389 1103.8268,838.861629 C1112.61313,835.899937 1121.30914,832.675027 1129.93692,829.283347 Z M1096.26784,997.342959 L1078.44325,1084.52357 L1139.43813,1080.48173 L1096.26784,997.342959 Z"
         id="Accent"
         fill="#FF5678" />
      <g
         id="g25"
         stroke-width="1"
         transform="translate(554.156913, 43.125000)"
         fill="#000000">
        <path
           d="M1051.57872,247.171095 C1050.33254,256.868001 1051.21951,267.439695 1040.27281,269.995842 C1030.14284,272.363388 1019.02757,271.699271 1008.69893,272.527912 C997.092013,273.460886 985.519207,274.734946 973.936367,275.882604 C959.3334,277.329215 961.416385,271.717329 958.223679,259.245579 C955.305895,247.857282 950.650284,236.491055 946.777297,225.383654 C944.977261,220.2212 942.828054,215.472064 940.373824,210.606556 C938.150369,206.20252 939.207915,200.211425 936.81188,196.509626 C928.636466,183.879371 888.762761,218.417451 885.058339,211.609754 C891.804962,206.357012 903.482118,200.480282 905.551056,191.491633 C907.985218,180.927965 901.27271,177.773912 892.838428,181.636222 C872.082829,191.144527 848.130512,198.576213 825.494609,202.041257 C832.815156,197.14766 899.02718,158.578733 876.806669,147.13827 C871.797874,144.560053 865.109446,149.413522 860.592299,151.249373 C853.424263,154.164664 845.937157,156.118893 838.454064,158.028981 C830.569626,160.041395 822.665121,161.977566 814.736534,163.807398 C809.175888,165.09149 799.262647,169.652026 793.844478,168.526438 C788.344034,167.382793 798.08871,163.967909 799.68406,163.163345 C806.641389,159.658173 813.486342,155.89217 820.277113,152.078014 C832.327521,145.310444 843.45684,137.47146 852.621571,127.008111 C859.53676,119.112948 870.955048,101.871997 866.140905,90.9552031 C863.351551,84.6270339 857.237048,78.7783931 853.645003,72.7832855 C849.450939,65.7809677 846.065588,58.3171791 842.423374,51.0219276 C848.519817,53.7024711 855.362763,54.3886581 861.58563,56.7943254 C867.808497,59.2019992 874.127686,61.1502085 880.601394,62.9399127 C893.588944,66.5293529 906.538366,67.1673865 919.409526,70.0786653 C933.978379,73.3731656 949.159284,77.0569064 963.960917,78.960975 C976.848131,80.6162507 988.436991,84.1434928 999.480021,91.1698873 C1022.02963,105.523636 1037.67209,126.143355 1045.58462,151.642626 C1050.22016,166.580235 1051.34795,182.16591 1051.89378,197.707444 C1052.46971,214.09367 1053.67776,230.857099 1051.57872,247.171095 M925.024354,248.376938 C909.277552,259.855523 890.919995,268.826114 874.02133,278.591237 C864.350902,284.17704 854.475789,289.39768 844.612716,294.63437 C837.613245,298.350213 829.108727,305.188007 821.404895,307.094082 C816.53055,308.299925 816.893768,308.392219 813.809425,303.948055 C810.861541,299.70453 808.286907,295.135969 805.527655,290.766041 C800.440597,282.708359 795.305377,274.680774 790.170158,266.653188 C778.657553,248.657833 767.167023,230.666491 755.07046,213.054358 C742.93577,195.382033 731.294735,177.384671 719.539317,159.461547 C714.074993,151.128989 708.644785,142.764329 702.847345,134.660501 C698.418494,128.472779 687.068434,119.034698 692.458508,111.749479 C697.465297,104.981909 708.871545,99.3599908 715.618168,94.2376649 C723.861811,87.9837324 732.155622,81.7940045 740.377191,75.5079696 C758.05246,61.9949007 775.264175,47.8939581 792.92339,34.3628317 C807.909642,60.6486098 825.540763,85.2911506 843.324396,109.729039 C827.242469,119.991748 810.995991,129.74684 794.049165,138.532843 C781.533196,145.021523 762.384988,153.789469 754.478475,166.098701 C746.69036,178.219332 754.340011,192.203903 768.222562,192.426613 C776.5244,192.559035 784.800151,190.360026 792.939444,189.104023 C798.815146,188.197133 809.54312,183.961633 814.840884,186.947149 C805.318955,193.022512 770.773115,210.728946 789.39556,226.252423 C802.706194,237.349792 825.209653,221.15618 839.587866,224.488802 C835.20517,232.899609 830.649895,246.316371 842.814687,250.890951 C852.938635,254.699088 866.189066,247.60247 875.299616,243.838473 C881.883694,241.119808 888.42563,238.308849 894.899338,235.341391 C900.046598,232.979865 906.21127,228.196619 911.711714,227.177371 C918.129233,225.987579 931.197053,243.874588 925.024354,248.376938 M632.288746,868.296748 C641.298959,866.653511 645.924469,862.927636 648.761984,873.8665 C651.30451,883.665733 653.822955,893.103814 657.097937,902.720464 C643.024746,903.936339 630.61112,910.655755 620.348708,920.107881 C613.040201,926.843348 598.505463,942.918583 602.109548,954.196528 C610.8629,981.603881 655.07716,920.119919 660.330777,913.548976 C666.762343,922.948936 669.128277,935.256162 672.324996,946.006425 C674.600627,953.656808 683.044943,968.323554 671.881509,970.183482 C656.210962,972.795808 626.810375,978.630404 628.668607,1000.82514 C630.863968,1027.02264 664.189717,1026.87417 682.886411,1028.05192 C693.427759,1028.71403 693.47592,1037.16095 694.976953,1046.61308 C695.649208,1050.84055 697.746239,1056.55276 694.156201,1059.64863 C690.969516,1062.39538 681.208786,1062.47162 677.060877,1063.36046 C664.968328,1065.95673 652.883806,1068.60317 640.793263,1071.19743 C627.067237,1074.14282 619.808898,1070.01767 606.977873,1066.25769 C602.225938,1064.86525 597.453937,1065.45313 597.104766,1060.13417 C596.890046,1056.86977 600.084758,1051.82369 601.130264,1048.5954 C605.272153,1035.82269 608.797976,1022.67478 609.987966,1009.26203 C611.719773,989.773921 609.556519,960.554794 585.560054,956.752675 C574.143773,954.942907 571.948411,954.353027 566.795131,943.638879 C561.220438,932.053956 552.370763,921.323756 554.509936,907.977218 C556.057124,898.306395 553.446369,880.006068 559.619068,871.984502 C562.472637,868.276684 568.035289,866.063631 571.832021,863.34296 C576.670244,859.871897 581.329869,856.156054 585.838989,852.269667 C589.631707,849.003256 594.255211,842.616902 598.555631,840.257381 C603.809248,837.372186 603.969786,839.338452 607.742436,843.844815 C613.311109,850.49802 622.164798,870.144638 632.288746,868.296748 M657.754137,911.592742 C654.631667,917.894828 647.415469,923.7535 642.82006,929.014268 C638.196556,934.305131 633.821887,939.896953 628.664593,944.692236 C622.989563,949.971061 602.831971,962.719694 607.272862,945.558999 C610.728449,932.210454 623.659811,921.399999 635.041978,914.738769 C637.245366,913.44665 663.037854,900.93076 657.754137,911.592742 M679.806082,975.139277 C681.804784,984.073753 682.880391,993.283105 684.586111,1002.28179 C685.461044,1006.88245 690.299268,1017.99587 688.326653,1022.41997 C684.98545,1029.91987 654.910602,1021.04158 648.675695,1018.46135 C633.835934,1012.31777 627.023089,996.54751 640.708981,985.315712 C645.898382,981.060148 677.80738,966.208814 679.806082,975.139277 M699.522195,1082.44127 C701.197813,1090.97045 706.098246,1098.87766 697.997081,1105.32621 C691.270525,1110.67927 680.249569,1114.33292 671.961778,1116.23899 C660.663894,1118.83527 657.031714,1112.50509 651.051662,1104.36314 C644.622102,1095.60723 637.77715,1087.14827 630.675336,1078.92807 C652.978122,1073.93616 675.278901,1068.94225 697.583694,1063.95034 C697.569647,1070.16414 698.324177,1076.35186 699.522195,1082.44127 M646.083001,1122.02543 C634.452,1121.42351 621.938037,1124.92467 610.142484,1125.84561 C595.411087,1126.99527 580.72183,1128.66861 565.978392,1129.65776 C569.755056,1117.60535 576.539807,1106.85709 581.847605,1095.4728 C587.171457,1084.04839 590.909993,1082.81245 603.159067,1081.93165 C614.509127,1081.11504 622.513969,1077.20859 630.890056,1086.83728 C639.60528,1096.8512 647.497745,1107.73388 655.454425,1118.34972 C652.747348,1120.16149 649.512501,1122.204 646.083001,1122.02543 M562.944218,1124.48527 C560.074595,1126.57594 551.22492,1120.633 548.242921,1119.48132 C542.441468,1117.24018 541.155154,1116.51788 538.127,1110.85985 C535.526279,1105.99434 531.388404,1100.46471 530.573672,1094.91101 C529.498065,1087.59169 532.736926,1077.95297 533.916883,1070.67978 C537.057414,1078.25192 547.365981,1079.13072 554.331337,1080.36866 C559.599001,1081.30766 575.207339,1079.81289 579.178656,1083.56485 C583.567372,1087.71006 575.488281,1099.2689 573.383222,1103.62278 C570.870797,1108.81934 567.768394,1120.97208 562.944218,1124.48527 M557.321363,1130.49041 C553.867783,1131.0502 543.928454,1134.48514 544.12712,1128.17704 C544.349867,1120.97208 558.025725,1128.74485 557.321363,1130.49041 M539.806632,1130.11321 C539.176519,1136.18055 526.12074,1135.67694 525.821738,1130.33993 C525.314035,1121.32119 540.809997,1120.42433 539.806632,1130.11321 M524.878575,966.497735 C521.541385,976.004033 501.211213,979.404873 493.403031,982.332203 C486.273122,985.00472 464.971694,997.344048 457.619039,992.867782 C482.506492,975.763266 508.010011,959.001844 529.09672,937.162237 C529.959613,942.557432 528.645206,947.063795 527.053869,952.17007 C525.619058,956.778759 526.357534,962.286312 524.878575,966.497735 M518.689823,1001.16422 C515.107812,1024.45044 511.594029,1048.04364 506.747779,1071.09711 C497.512812,1068.27612 489.897275,1062.55589 480.19474,1060.56354 C471.341052,1058.74575 462.194381,1058.70161 453.26845,1060.02984 C434.244659,1062.85886 417.285792,1072.26885 400.688137,1081.43807 C399.154996,1065.46918 395.98035,1048.37871 396.355609,1032.35363 C396.666652,1019.0412 419.44704,1015.10064 429.779687,1009.60111 C436.030648,1006.27451 441.683604,1001.5956 448.805485,1000.4359 C456.134059,999.240091 463.205772,999.276207 470.446051,997.043089 C487.561442,991.762258 503.669456,983.389573 520.437684,977.149685 C521.80828,985.143162 519.903894,993.287118 518.689823,1001.16422 M502.696193,1099.71633 C501.935642,1105.0092 502.894859,1114.45531 498.861334,1118.49017 C495.062596,1122.29028 486.94939,1122.41467 481.940594,1123.44395 C466.681427,1126.58396 451.436307,1129.75407 436.199213,1132.99239 C429.382355,1134.441 422.56349,1135.82542 415.718537,1137.11954 C412.453589,1137.7355 404.264128,1140.86749 401.514909,1138.26921 C398.906161,1135.80134 400.848675,1127.92022 400.989146,1124.61368 C401.270088,1118.00863 401.64334,1111.38352 401.227947,1104.77646 C400.433282,1092.10206 401.139651,1087.24859 412.935204,1080.69169 C425.467227,1073.72349 438.410629,1068.95428 452.515927,1066.37205 C466.797817,1063.75772 480.40344,1065.18828 493.997022,1070.66975 C497.779707,1072.19461 503.45273,1074.0746 505.214638,1078.1536 C507.608665,1083.70329 503.502898,1094.09241 502.696193,1099.71633 M485.516586,1304.01146 C479.923832,1307.51864 467.75302,1306.92073 461.327474,1307.633 C450.952685,1308.77865 440.511674,1308.12457 430.205114,1306.52347 C422.447099,1305.31963 410.868273,1303.65232 404.922335,1298.20495 C396.474006,1290.46629 406.222695,1290.11116 412.688376,1290.65489 C431.485407,1292.23593 450.519232,1291.13241 469.298202,1289.77408 C472.954462,1289.50924 482.781414,1286.29901 486.307237,1287.8018 C490.81435,1289.72192 489.433721,1301.55563 485.516586,1304.01146 M474.858848,1429.08209 C439.837413,1425.67924 419.533329,1396.67881 406.832741,1367.03232 C400.015882,1351.11559 402.474125,1334.41436 401.801871,1317.58271 C401.679461,1314.50892 399.748987,1306.8786 402.909586,1304.58328 C405.879545,1302.4244 417.893831,1309.09566 421.142726,1309.8922 C437.800583,1313.97522 456.222355,1314.36646 472.916334,1310.39982 C480.148585,1308.68235 484.198165,1305.48817 486.495869,1312.65501 C488.346073,1318.42741 485.309892,1329.06331 484.978782,1335.11259 C484.406864,1345.57593 486.046362,1430.16754 474.858848,1429.08209 M404.898254,1429.11419 C404.763803,1424.034 402.20121,1372.70039 404.687548,1372.54589 C412.076324,1388.48469 419.665773,1402.74213 433.116878,1414.46751 C439.987918,1420.46061 447.713824,1425.85982 456.306638,1429.07607 C459.535465,1430.28392 477.828807,1431.20084 478.725815,1435.2056 C480.29307,1442.21595 467.805195,1439.38693 464.100774,1438.81711 C461.128808,1438.35765 458.453838,1437.09161 455.538061,1436.56192 C449.983435,1435.55471 444.733832,1436.90903 439.155125,1437.02139 C430.678702,1437.19394 422.35479,1436.30511 413.874353,1437.03945 C406.122359,1437.70758 405.104947,1436.81674 404.898254,1429.11419 M410.067588,1198.86433 C440.04812,1189.17345 465.104138,1207.52594 480.927196,1231.5465 C489.94945,1245.24416 491.966213,1254.82269 490.388924,1271.04238 C489.823026,1276.84889 490.866525,1280.77941 485.528626,1283.14495 C480.244908,1285.48842 468.240655,1283.75089 462.523485,1284.01774 C446.082354,1284.78618 429.703431,1285.80744 413.262301,1284.83233 C402.582489,1284.20032 401.073429,1282.39055 401.258048,1272.02351 C401.478788,1259.54373 400.441309,1247.12014 399.73494,1234.6203 C398.970377,1221.0972 394.326806,1203.95055 410.067588,1198.86433 M400.25669,1180.88904 C400.27475,1171.71982 399.724907,1162.31183 400.284784,1153.15665 C400.842655,1144.07972 404.705608,1144.52916 413.274341,1142.98022 C431.830564,1139.62553 450.362707,1135.87156 468.668089,1131.32307 C475.908367,1129.52534 484.089801,1126.07434 491.633096,1126.04608 C499.547635,1126.01615 499.128228,1130.08512 498.600459,1137.09346 C497.426522,1152.61693 494.582987,1167.91168 493.718087,1183.3529 C492.784958,1200.01801 492.295316,1216.89781 492.369565,1233.58098 C492.395653,1239.21293 493.764242,1243.38423 488.964146,1238.11343 C484.156023,1232.8346 481.804137,1224.42179 477.511744,1218.48888 C468.720264,1206.34016 455.654451,1196.56701 441.153827,1192.4519 C433.136945,1190.17665 424.70467,1189.78139 416.531262,1191.42864 C414.050945,1191.92823 401.629293,1197.85712 400.04799,1196.68539 C398.978404,1195.89286 400.254683,1181.26023 400.25669,1180.88904 M509.936471,1498.68793 C521.828347,1507.20307 534.996503,1514.083 548.327204,1520.05604 C555.828357,1523.41675 585.519919,1530.48929 586.467095,1538.0534 C586.972791,1542.08826 582.052292,1546.61067 578.829485,1547.08819 C574.741778,1547.69413 568.005188,1545.02361 563.841226,1544.518 C548.698449,1542.68015 533.585772,1542.66811 518.810227,1538.45267 C489.31131,1530.03384 458.726753,1527.66228 428.920807,1520.32289 C421.829027,1518.57732 414.721193,1516.94011 407.593291,1515.35907 C400.822588,1513.85628 397.788413,1514.1131 397.549612,1506.87804 C397.021843,1490.99742 401.577118,1474.72757 401.613239,1458.65033 C425.726095,1461.4031 449.921226,1461.36698 474.100304,1463.6322 C484.461046,1464.60129 484.220239,1466.56555 488.75946,1475.61841 C493.473266,1485.01034 501.490149,1492.64066 509.936471,1498.68793 M392.368238,982.753545 C392.063215,976.874809 391.824415,970.980021 391.292631,965.117335 C390.935434,961.178782 387.337369,950.169694 389.366172,947.101917 C391.776253,943.46031 394.204395,945.683395 398.516856,945.581069 C404.201919,945.446641 408.96188,943.161357 413.649599,940.169823 C422.527369,934.507776 429.1275,927.05402 434.888819,918.354292 C439.957817,910.697889 439.014654,900.238553 438.952446,891.071336 C438.791907,867.365781 440.519701,844.244088 439.072849,820.434201 C438.408622,809.497343 447.743925,816.204721 455.283206,817.621235 C467.614556,819.936615 481.017499,818.333505 493.549522,818.363601 C493.083961,821.278893 467.456024,828.515959 463.316142,831.270739 C452.7166,838.319204 446.535874,849.597149 447.503118,862.454127 C449.447638,888.320568 477.935163,892.644349 498.750963,892.694509 C481.481054,907.96518 464.52018,922.52358 450.946665,941.361621 C440.939107,955.251892 423.312,982.637175 439.672861,998.004152 C425.210365,1006.21833 410.8763,1015.35545 394.519452,1019.30805 C393.786996,1007.12522 393.002365,994.942394 392.368238,982.753545 M385.802221,510.580635 C391.689964,514.362689 394.166267,509.015647 398.647293,506.246822 C404.958456,502.344384 407.047461,502.727605 407.848146,494.013833 C409.329112,477.852323 402.530314,463.223698 393.993689,449.997544 C390.114681,443.986385 386.243701,436.827569 380.767338,432.128592 C375.774596,427.844939 370.727672,429.319639 366.102162,424.891526 C364.286072,423.149975 364.675378,420.692142 361.673311,420.762365 C359.696683,420.808513 354.892574,426.932029 353.259096,428.28434 C348.101803,432.553948 341.792647,435.804307 335.033984,432.283084 C325.192984,427.158752 328.353583,408.559472 335.997213,402.534269 C341.88295,397.895484 348.838272,398.611767 355.538741,397.863382 C360.56359,397.303598 361.609096,397.522295 359.542165,391.771967 C358.093307,387.745133 354.75411,384.603119 353.104578,380.664566 C349.933946,373.102464 350.624261,363.911169 349.255672,355.90766 C348.025547,348.736805 345.149904,340.980083 345.254254,333.69687 C345.390712,324.423313 348.420873,322.013633 356.455816,319.413346 C364.239918,316.89532 370.685531,311.343626 377.315764,306.678758 C384.82093,301.397927 393.040492,297.910813 400.752352,293.089446 C405.987908,289.81501 409.36724,283.195913 415.124545,286.287768 C421.965484,289.961476 429.199743,300.597375 435.01725,306.032699 C426.504705,311.43592 424.526071,313.799453 425.698,324.377166 C426.775614,334.074072 428.750235,342.715615 436.163092,349.471146 C439.010641,352.067421 444.322452,354.146046 446.529854,357.139587 C449.104488,360.626701 447.430876,357.552904 447.105786,361.489451 C446.933207,363.612216 445.253575,365.000642 445.618799,367.454462 C447.252277,378.353199 459.772259,371.920697 464.931559,368.13463 C483.365372,354.607517 448.945956,343.865279 440.770542,338.937573 C435.125613,335.532721 432.334253,324.666087 441.278244,327.553289 C447.228196,329.473409 460.669267,345.753296 462.033843,330.914 C476.787314,339.483313 485.891844,357.691345 498.263328,369.204039 C507.183239,377.5065 519.167424,386.715852 512.085678,399.976115 C503.063424,416.877985 485.169421,424.550439 468.834647,431.843684 C452.989515,438.916226 456.280551,458.93202 464.748947,471.183066 C469.645366,478.26564 476.060878,482.414865 483.778758,485.855832 C491.663197,489.373042 493.300687,493.504209 495.022461,501.66221 C496.934874,510.71105 494.904064,514.358676 487.067787,519.033576 C479.418136,523.60013 471.419314,528.022224 463.251927,531.595614 C445.590705,539.324246 427.269269,539.8118 408.484279,542.446197 C401.900201,543.369138 395.587032,545.291264 391.994987,538.764462 C387.955441,531.419051 387.658445,518.768732 385.802221,510.580635 M382.962699,475.428598 C378.541875,473.099174 367.87009,480.837838 362.28135,481.176919 C353.241036,481.724665 347.305131,481.518006 339.280222,486.31329 C324.109351,495.378181 311.52114,507.04938 299.356348,519.705718 C285.654403,533.961153 272.030719,548.290825 258.374928,562.588394 C252.186176,569.065036 245.965316,575.50757 239.678234,581.885899 C234.72362,586.913924 229.879376,593.984459 223.746813,597.571893 C224.065882,593.310311 226.678644,590.294699 227.605752,586.344108 C228.145563,584.034748 227.2024,582.0745 227.551571,579.863453 C227.665954,579.145164 229.594421,576.649209 229.887403,575.830599 C230.670028,573.669712 231.627237,571.534908 232.556353,569.291759 C233.42326,567.197083 233.296836,565.026164 234.175783,562.839193 C235.080818,560.584005 237.557122,559.091248 238.416002,556.870169 C240.934447,550.36945 236.76647,547.355845 230.100117,547.508331 C232.708864,534.500873 233.848686,528.138595 247.448289,523.551977 C260.441859,519.170011 273.13442,514.250331 285.070444,507.402505 C295.66798,501.323129 304.509628,492.561203 314.697792,485.785608 C323.818375,479.71827 335.172448,473.362011 335.078132,460.920357 C340.249472,464.427535 345.095723,467.378942 351.01156,463.887815 C356.004302,460.938415 356.666522,458.56485 362.437875,458.009078 C367.149675,457.557639 370.069465,457.437256 374.273563,459.509862 C379.222156,461.945625 379.898424,463.641028 382.780087,456.466161 C386.055069,459.222947 394.334833,470.705545 394.057904,475.250029 C393.907399,477.754009 393.528128,478.88361 390.425724,479.543714 C386.024968,480.478694 386.19554,477.132027 382.962699,475.428598 M362.347572,1154.98247 C360.196359,1158.27898 351.12795,1157.67104 347.626208,1157.6269 C336.95041,1157.48846 333.217894,1148.5279 328.534188,1139.87031 C321.149425,1126.2208 310.112416,1097.86643 322.227039,1083.54077 C331.789103,1072.23474 350.413555,1086.48014 356.937431,1095.01936 C362.570319,1102.39687 360.896707,1113.46214 361.420463,1122.31435 C361.861944,1129.77614 366.597824,1148.47574 362.347572,1154.98247 M333.181773,1159.92623 C328.91346,1164.19383 315.06101,1163.29095 309.406047,1164.20788 C299.3122,1165.84108 289.274542,1167.80534 279.481704,1170.78685 C272.191258,1173.00592 264.985094,1178.97695 263.062647,1168.81456 C261.449237,1160.27133 262.251929,1150.02267 262.406447,1141.39918 C262.573006,1132.09553 263.546269,1122.91025 264.354981,1113.64874 C264.902818,1107.38477 263.532222,1095.86205 268.645368,1091.05472 C273.052144,1086.91152 283.766071,1086.51225 289.487255,1085.13987 C298.880754,1082.88669 308.695665,1079.92726 318.460409,1080.93647 C312.763305,1096.39976 312.279683,1112.61544 318.388166,1128.02455 C320.130007,1132.42257 335.818615,1157.28983 333.181773,1159.92623 M261.393049,1098.32389 C259.013068,1121.58403 256.619041,1144.99063 258.910725,1168.36713 C259.049189,1169.76158 260.714774,1176.14793 259.990345,1177.14712 C259.241835,1178.18242 253.313958,1178.71812 251.967443,1179.03513 C246.621517,1180.30318 241.283617,1181.64746 235.903577,1182.77305 C225.432465,1184.96202 224.065882,1178.34694 222.010992,1168.64201 C217.610235,1147.84974 226.142847,1125.30589 231.312181,1105.33624 C233.830626,1095.61125 235.696884,1094.49168 245.258948,1093.68511 C251.913261,1093.12532 262.40444,1088.44039 261.393049,1098.32389 M220.957459,1185.10247 C216.956042,1188.74207 212.956631,1171.56934 212.603446,1169.81976 C211.204756,1162.86961 211.983367,1155.82115 212.003434,1148.76265 C212.037549,1137.73751 211.194723,1126.76253 211.178669,1115.78956 C211.168635,1109.85464 206.721724,1097.71997 213.745275,1094.57996 C215.806186,1093.65902 223.99364,1094.04225 225.851871,1095.25411 C229.710811,1097.77414 228.189711,1099.40734 227.045875,1103.79132 C224.485289,1113.63068 222.271867,1123.51819 220.042391,1133.43981 C217.855056,1143.16682 215.697822,1152.52665 216.739315,1162.57267 C217.082465,1165.89526 223.508012,1182.78308 220.957459,1185.10247 M348.573384,1076.72505 C358.328094,1073.97629 358.849843,1081.45011 358.83379,1088.60291 C357.346803,1087.46328 343.484319,1078.15962 348.573384,1076.72505 M218.09185,551.681632 C215.701836,555.620185 200.563072,556.695612 196.236564,557.732918 C187.726027,559.771416 179.211476,561.795868 170.723012,563.918634 C154.819684,567.895308 139.307669,572.381607 123.005003,574.462238 C131.957021,560.128554 134.742361,547.751104 133.076775,529.864095 C130.97573,507.280115 128.304774,484.924864 123.105339,462.818407 C117.980153,441.018927 112.046255,419.365915 106.331091,397.712902 C103.523677,387.074997 100.487496,376.639738 96.7529736,366.288747 C93.7589339,357.992305 89.0832553,347.54902 94.1642932,339.043912 C107.059534,348.451897 117.402215,358.588204 124.756877,372.879754 C132.637302,388.200584 139.516369,403.928713 148.661033,418.585427 C152.843056,425.286786 157.725428,431.398264 162.198427,437.884939 C164.85935,441.745242 166.79785,447.312988 170.187215,450.569366 C174.094317,454.321325 178.260286,456.090965 180.493775,449.758783 C182.88981,442.963124 175.246179,429.516266 172.990616,423.133924 C167.542346,407.726819 162.140232,392.351815 157.938141,376.547444 C154.538742,363.772728 148.919901,348.327501 150.908569,334.848541 C152.877171,321.504009 161.931532,331.054448 166.512894,337.258221 C175.958568,350.048988 181.61353,364.958507 187.818336,379.458722 C193.52146,392.781184 200.173767,405.481663 206.48493,418.495139 C208.680291,423.023572 211.573994,434.720854 217.32528,436.067145 C225.685313,438.027393 224.976937,426.253868 224.178259,421.476642 C218.880495,389.809713 205.050118,359.487069 202.180496,327.270388 C202.042032,325.731483 200.043329,313.761331 201.650719,312.762147 C204.76717,310.823969 208.971267,322.966671 210.315775,325.942154 C217.309226,341.417477 222.179557,357.731473 226.648543,374.079578 C230.449287,387.981887 233.886814,401.990536 238.15312,415.760423 C240.49698,423.330551 243.18399,430.774275 245.832872,438.24007 C248.228907,445.003627 250.661062,456.562468 256.910016,461.01867 C265.775745,467.34082 297.502131,452.308911 300.716911,465.747743 C303.004582,475.300189 273.585934,482.992706 267.320926,485.893953 C259.07327,489.712122 250.982139,493.893449 242.730469,497.715631 C236.483522,500.606846 227.505416,501.792625 222.986262,507.233968 C218.198207,512.99834 217.431636,521.092137 217.289159,528.242928 C217.178788,533.654175 220.929365,547.010745 218.09185,551.681632 M198.042621,655.988078 C197.623214,658.989644 195.237213,662.964312 194.163613,665.821418 C191.978286,671.64197 190.120054,678.596134 187.07986,684.033464 C184.465092,688.716389 180.606152,692.903735 178.07968,697.656885 C175.683646,702.16726 175.364576,707.367835 172.565189,711.88423 C169.36245,717.044677 164.068698,720.756508 160.888033,725.884853 C159.320778,728.414917 157.701347,731.304125 155.485918,733.998713 C147.641615,743.543133 139.853499,752.547833 133.544343,762.772421 C131.930933,765.390766 124.050508,776.817184 120.913991,777.435154 C114.358007,778.72326 121.989598,769.403556 123.271898,767.47541 C132.561046,753.534979 140.810709,738.858202 149.776774,724.70108 C158.461898,710.993391 167.3497,697.39204 175.707727,683.477693 C182.524585,672.133536 187.238392,655.84763 198.317542,647.85616 C198.359684,650.572818 198.269381,653.283457 198.042621,655.988078 M500.940305,527.865726 C506.336399,550.048426 512.79004,571.54494 518.872435,593.529008 C524.517364,613.928024 532.028551,635.757599 534.368397,656.786623 C536.686169,677.61902 542.012028,698.696197 549.174043,718.469218 C552.485146,727.618378 555.890565,736.801647 559.484617,745.844468 C561.459238,750.812302 563.66664,755.667777 565.908157,760.51924 C567.647991,764.289255 572.245407,770.392708 572.421999,774.38744 C572.56247,777.585634 573.674198,776.30756 570.517613,778.711221 C567.248652,781.201157 561.585662,780.296273 557.778897,780.735674 C547.849602,781.883331 538.167135,785.619238 528.486674,788.038951 C509.818074,792.703818 487.565456,796.407623 468.435308,793.161276 C460.388325,791.794922 452.030299,790.611149 444.073618,788.831476 C434.282787,786.640493 432.270038,782.589582 430.261302,772.966913 C425.866566,751.929864 422.081875,730.946987 418.453709,709.76949 C414.139241,684.579203 409.469583,659.417006 406.140419,634.070221 C402.777142,608.428496 400.36104,582.760687 395.091369,557.397851 C416.34865,560.953182 436.367779,564.967978 457.687268,559.143414 C476.566574,553.984973 490.196278,543.902839 500.940305,527.865726 M584.153337,802.499038 C588.905271,812.294257 577.450862,821.100324 571.900249,828.644368 C564.579702,838.588061 557.742776,848.977173 549.228225,857.971841 C546.673659,847.751266 544.432143,836.250611 537.617291,827.855855 C528.912101,817.135688 518.752032,821.515648 508.088274,816.445488 C519.271774,811.004145 533.551658,813.080764 545.41544,808.229301 C557.118684,803.44405 568.934304,799.688079 579.822816,793.472268 C581.269667,796.479853 582.698458,799.495465 584.153337,802.499038 M542.678262,1031.02339 C535.530293,1031.42066 540.312328,1016.34661 540.775882,1012.60067 C542.052162,1002.30386 543.342489,992.009045 544.460237,981.694169 C550.358013,997.245735 556.253783,1012.7973 562.147546,1028.34686 C555.667818,1029.27181 549.230232,1030.66023 542.678262,1031.02339 M531.051274,1105.573 C532.026544,1107.7399 536.573792,1114.96292 532.983754,1116.29517 C528.063254,1118.11898 527.471269,1106.15686 531.051274,1105.573 M522.522675,938.039031 C499.752321,956.218974 477.140499,974.445065 452.503887,990.09695 C447.105786,993.525879 441.669557,994.960451 438.091559,988.160779 C435.280131,982.813737 438.25009,976.79054 440.05414,971.555856 C444.653563,958.211324 452.666432,946.61035 461.546207,935.749735 C479.281679,914.060607 500.390461,895.535564 527.324778,886.984309 C531.731555,885.583846 538.534366,881.362391 540.077541,887.192975 C540.986589,890.621903 537.139689,899.185196 536.359072,902.403453 C533.142285,915.693813 533.84464,929.004236 522.522675,938.039031 M588.068465,1070.62361 C588.570147,1086.06081 546.370643,1073.60912 541.113013,1070.85033 C546.629511,1069.00043 587.841705,1063.68349 588.068465,1070.62361 M603.739012,1070.71991 C606.245417,1071.38804 615.861662,1072.23675 612.269617,1075.52322 C609.054837,1078.4646 594.496018,1077.28484 590.637078,1077.64599 C593.229772,1069.12884 595.198373,1068.44667 603.739012,1070.71991 M595.920796,1050.04201 C594.977633,1053.47696 594.594348,1058.71565 591.516026,1061.06915 C587.681166,1064.0025 579.53184,1062.22082 575.191285,1062.2449 C567.818563,1062.28302 560.453867,1062.66022 553.117266,1063.39256 C550.309852,1063.67145 538.939725,1067.09837 536.308904,1064.76092 C534.376424,1063.04345 535.096839,1054.98777 536.503556,1053.178 C539.393246,1049.45614 546.04756,1050.74425 550.217542,1050.59577 C565.47671,1050.05003 580.653601,1050.00589 595.920796,1050.04201 M586.123945,992.982146 C583.970724,989.781946 583.585433,989.816055 582.666351,984.980644 C581.68506,979.806152 579.186683,975.380045 577.717757,970.380109 C574.486923,959.37704 584.811544,960.354154 592.384939,964.389014 C612.030816,974.856376 607.288916,1011.42894 602.430625,1028.55151 C595.366939,1023.35896 592.760198,1021.00346 590.330049,1012.62475 C589.406953,1009.4406 588.371481,1006.31263 587.410258,1003.14654 C586.703889,1000.81511 587.195538,994.57723 586.123945,992.982146 M587.825651,814.978813 C593.310041,814.316703 598.328871,831.334944 596.761615,835.018684 C593.554862,842.552697 581.299768,849.282145 575.058841,854.091473 C570.902905,857.291673 566.775064,860.963375 562.334172,863.754271 C558.210344,866.344526 555.83839,864.891896 552.003531,866.135861 C546.454926,867.931585 545.110417,873.802296 539.431374,876.32634 C531.440579,879.877659 521.756105,880.870825 513.410119,884.077043 C503.284164,887.967443 494.003043,888.073782 483.385439,886.229905 C468.116238,883.579458 450.218222,876.003311 451.594838,857.450178 C454.020974,824.713841 519.032974,807.94038 536.762424,835.696846 C541.377901,842.921874 541.305659,851.342712 544.301705,859.103448 C547.546586,867.502216 550.693137,864.201697 555.573502,858.015982 C561.958914,849.922185 567.890805,841.395007 574.025375,833.108597 C576.01003,830.43006 583.866375,815.460348 587.825651,814.978813 M189.407666,1133.70867 C189.096623,1139.27642 189.42974,1144.92241 187.493246,1150.23534 C185.542706,1155.59242 181.587443,1159.92422 179.309805,1165.13082 C174.692322,1175.68245 174.726436,1188.44914 174.911055,1199.75517 C175.340495,1226.06102 181.569382,1251.61045 184.864431,1277.60129 C173.897657,1277.5752 162.561645,1277.6996 151.932001,1274.5636 C142.438166,1271.76268 140.923086,1264.82456 138.238082,1256.08069 C130.698802,1231.52242 122.555495,1207.07049 120.121333,1181.35252 C118.96345,1169.09746 118.475815,1156.74208 117.921958,1144.4469 C117.438336,1133.66052 119.860458,1128.95552 129.597107,1123.6165 C150.760072,1112.0075 172.697633,1102.3427 193.643871,1090.18194 C191.502691,1104.60993 190.222398,1119.15027 189.407666,1133.70867 M1092.86717,271.815642 C1087.71389,270.87063 1082.51245,270.278744 1077.31301,269.658768 C1074.59991,269.333732 1066.14557,269.78517 1064.11476,268.017537 C1061.69865,265.912829 1065.88268,250.000111 1066.0974,246.585228 C1067.40579,226.049777 1065.88469,204.880306 1064.00037,184.423104 C1060.59295,147.389069 1048.94589,113.079718 1022.07378,86.4127253 C1008.69893,73.1384174 993.662513,62.6068511 975.395259,57.5246531 C964.753575,54.5632144 953.786801,52.9841817 943.121036,50.1130308 C934.518189,47.7936384 926.489266,45.1391781 917.551295,44.2202493 C899.725521,42.3864045 883.428875,35.6509372 866.032541,31.7545185 C853.233624,28.8873803 832.648597,22.0877084 824.350773,36.53977 C817.81887,28.8793547 811.248839,23.1270209 803.011217,17.4128085 C795.120758,11.9393635 793.830431,6.47193775 784.168031,12.7920813 C765.395081,25.0732238 747.812122,40.0549737 730.277323,54.027507 C713.900408,67.0770987 698.055276,80.7426536 680.891722,92.7429008 C663.387025,104.983915 666.706155,125.756121 674.937757,142.977007 C690.425692,175.390315 714.313794,203.100633 735.223911,230.885188 C748.321831,248.290663 761.461892,265.718208 774.507638,283.157792 C786.979459,299.82692 797.765627,319.118406 812.338493,334.094136 C821.527305,343.534224 832.494079,331.188877 840.785884,325.484696 C851.078397,318.400116 861.190304,311.052698 871.494858,303.988182 C892.952811,289.273283 915.913804,275.491357 938.567768,262.682533 C940.215293,267.35342 941.862817,272.024307 943.510342,276.695194 C938.535661,277.068384 931.813118,275.956841 929.282633,281.305889 C925.664501,288.946241 934.540263,289.949438 936.095478,294.329398 C937.486141,298.241868 931.787031,308.574801 930.101379,312.100037 C926.310667,320.043354 921.016916,326.891179 915.185362,333.43002 C892.116005,359.306493 862.920105,377.815485 833.298778,395.457714 C801.600486,414.333877 767.626564,425.858608 732.924199,438.02338 C715.277024,444.207089 696.961608,447.080246 678.752549,451.040869 C661.205711,454.857032 643.674926,459.869006 625.744802,461.309598 C589.061796,464.252979 550.135267,466.460013 513.895747,458.548799 C509.928444,457.684042 505.730367,455.808063 501.694835,455.450925 C498.459988,455.164011 496.063953,456.520333 493.009712,456.69489 C486.451721,457.070086 482.693118,451.205394 477.483649,456.654762 C474.876908,459.379446 474.830754,463.956032 471.198574,458.869822 C466.577077,452.399198 478.388684,451.147208 482.76536,449.303331 C497.502778,443.095546 509.348499,430.599719 518.711897,417.967458 C528.069274,405.345228 529.413783,391.864261 523.716679,377.085157 C518.021582,362.312073 505.068146,352.298156 495.343538,340.301922 C490.639765,334.493409 486.31125,328.347822 481.14593,322.924536 C478.388684,320.027302 473.945786,317.254465 473.773207,314.333154 C473.572534,310.938334 475.605351,309.250956 474.389273,305.123802 C474.074217,304.050381 472.725695,303.440437 472.438733,302.260677 C471.985212,300.380685 472.687567,298.767543 472.450773,296.935705 C471.904943,292.734314 470.257418,290.095905 467.925599,286.652931 C466.472727,284.502076 464.347601,280.196353 462.348899,278.585218 C458.84515,275.760214 454.067128,276.911885 450.505184,274.048759 C444.868283,269.520326 442.885634,259.977913 437.898913,254.480391 C430.879375,246.743733 429.382355,254.560647 421.945417,252.094788 C415.586093,249.98406 415.660342,240.415564 410.521109,237.179249 C403.282837,232.62072 397.186395,241.00745 390.758842,242.875404 C382.302485,245.333237 385.55138,235.79283 378.014106,234.924061 C371.207281,234.137554 361.779668,247.945563 358.384282,252.849192 C354.926688,248.818345 351.144004,241.950456 344.921137,244.410296 C338.389234,246.994532 337.227338,259.01685 332.45333,263.306522 C330.789752,264.797273 331.140929,265.898784 329.094066,266.584971 C326.451204,267.469791 322.929394,263.633564 319.511935,264.803292 C312.61882,267.162813 313.45964,276.362133 313.445593,282.321125 C305.31232,281.133339 299.639297,280.527408 296.916166,289.293347 C294.25123,297.872691 293.239838,294.086624 284.665085,296.873507 C277.272296,299.275161 276.23883,306.295536 275.018739,313.161419 C274.264209,317.431028 274.96255,319.174585 276.110399,323.06699 C277.559258,327.970619 277.559258,327.908421 275.197338,332.58934 C271.081537,340.755367 270.834709,349.752041 270.176502,358.738683 C269.47816,368.32925 267.800535,377.059074 270.525673,386.424925 C272.211325,392.2214 272.339756,400.108538 278.016792,403.354884 C280.268342,404.640983 284.093167,403.936739 286.009594,405.212806 C289.667861,407.648569 288.554126,411.356387 290.990295,414.913725 C292.816418,417.576211 295.76029,417.833029 297.805147,419.99191 C300.028603,422.341398 300.161047,425.204524 301.427293,428.071662 C305.175862,436.562724 308.701685,440.669815 296.482712,441.155362 C288.945438,441.454315 280.904475,443.715522 273.397302,443.021309 C264.537593,442.204707 262.334205,437.252924 259.51475,429.712893 C245.303096,391.715788 237.665485,350.530522 218.948723,314.397359 C214.838942,306.464074 197.970378,274.052772 190.84047,297.668039 C184.82831,317.58552 192.716762,341.892993 195.740902,361.71818 C186.251081,353.164919 182.741312,337.75982 175.535148,327.316535 C170.213303,319.601947 153.547418,300.655561 143.778661,311.512163 C136.078842,320.069437 138.003295,338.213265 139.424059,348.443872 C141.669589,364.627452 146.84093,380.225165 150.535318,396.097754 C145.88372,390.014365 143.590029,382.584685 140.363209,375.734854 C136.315636,367.145478 131.264699,358.993496 125.5094,351.445438 C120.480537,344.848412 114.857683,338.71687 108.76124,333.092945 C104.101615,328.791235 95.7556293,319.37723 89.137437,318.867606 C72.1063278,317.561443 77.4622876,348.803016 80.0569882,357.735486 C85.4330152,376.248491 91.262563,394.249865 95.4365593,413.136059 C103.59592,450.033659 113.47906,486.078541 119.489213,523.445638 C120.819675,531.732048 122.423051,538.345126 119.146063,546.308507 C116.25838,553.324869 113.262333,561.715612 107.934468,567.110808 C95.8740263,579.327746 85.8604485,592.373324 76.8462218,607.094243 C67.1898417,622.860493 57.2505129,638.809325 49.3680814,655.546671 C45.7439288,663.247214 42.77999,671.575759 38.6140206,678.983368 C34.8534104,685.668676 30.3322499,690.951513 27.6592869,698.353104 C14.8864567,733.719824 5.42874286,768.468576 1.09822164,805.917934 C-2.45770217,836.663928 0.855407431,877.56228 37.9778875,884.757211 C55.0310706,888.061743 70.342413,880.499642 85.7199775,874.257747 C101.625312,867.803175 113.125876,857.309731 126.099379,846.158188 C142.219433,832.302026 158.955553,819.300588 175.246179,805.675161 C191.544832,792.041708 206.599313,776.923523 222.80967,763.143604 C238.821361,749.530215 253.305931,735.072135 267.152361,719.26375 C280.888421,703.581768 292.045835,686.208396 305.344428,670.307717 C305.29426,690.895334 302.238011,711.29435 301.381138,731.853877 C300.596507,750.703956 300.578446,769.535978 301.338997,788.376025 C302.099547,807.20604 297.124866,825.129165 297.084731,843.919052 C297.04259,862.247468 296.316154,880.469546 295.914808,898.777898 C295.734202,906.992078 294.124806,916.205443 297.193094,924.128696 C299.484779,930.045554 306.686929,931.89545 312.831534,933.490534 C322.327375,935.954387 350.897176,931.209263 355.137395,941.353595 C357.45316,946.889239 355.121341,956.96736 355.301947,963.084857 C355.602956,973.164985 355.972194,983.243106 356.317351,993.321227 C356.674549,1003.7304 357.021713,1014.13958 357.400985,1024.54675 C357.738116,1033.71597 359.522098,1043.93254 358.41639,1053.01147 C357.471221,1060.79227 352.934006,1059.77503 345.743896,1060.1743 C334.891506,1060.77421 324.035102,1061.25575 313.176691,1061.72926 C297.249283,1062.42748 280.627546,1062.10847 265.358345,1063.98846 C258.944839,1064.77697 251.937342,1064.4419 245.172658,1065.728 C236.688208,1067.34114 228.851931,1067.75045 220.247077,1068.17781 C213.309815,1068.5209 204.391911,1068.0173 198.941635,1073.14564 C197.051296,1074.92532 196.627877,1077.04607 195.287382,1079.02639 C192.776964,1082.73621 194.173647,1081.7611 190.053832,1082.59576 C173.963879,1085.85415 158.682638,1089.53187 142.947875,1095.01535 C135.071464,1097.76009 127.762957,1101.44584 119.850425,1104.02807 C112.915169,1106.29129 107.832124,1109.07817 104.404631,1115.88587 C98.2800944,1128.04462 99.8312959,1145.63468 100.274783,1158.73845 C100.973125,1179.1816 105.514352,1198.64363 110.412778,1218.41465 C115.507863,1238.9822 119.50326,1260.10151 129.414495,1278.99774 C132.671416,1285.20753 136.187205,1293.12877 142.839512,1296.36509 C151.428312,1300.5424 164.636603,1298.01033 174.010034,1298.02638 C180.301129,1298.03642 197.151633,1300.1973 201.853399,1294.92249 C206.406667,1289.81421 201.825305,1275.4083 201.183152,1269.07009 C198.929595,1246.85529 194.873995,1224.43584 194.928177,1202.07055 C200.059383,1209.65272 208.95722,1222.74043 217.861076,1211.12341 C220.052424,1208.26429 219.197558,1206.93606 223.088605,1205.27878 C225.241826,1204.36186 229.77904,1203.80007 232.122899,1203.95857 C235.311592,1204.17326 236.491549,1205.45534 239.421373,1204.82734 C242.014067,1204.27157 244.929844,1201.95017 247.903816,1201.24392 C284.761408,1192.484 321.406287,1183.04191 358.42241,1175.23703 C368.209228,1173.17245 366.818564,1180.6864 367.464731,1189.14736 C368.179127,1198.50519 366.816558,1207.95732 368.114911,1217.21081 C369.2447,1225.26247 370.123647,1233.10948 368.532311,1241.2093 C366.656019,1250.76174 367.86407,1258.73315 369.732335,1268.1933 C376.932479,1304.67558 375.646165,1344.24369 377.269609,1381.32186 C378.114442,1400.63341 376.300359,1420.35026 378.116449,1439.55747 C378.80275,1446.8126 382.852329,1450.82137 384.493834,1457.42041 C386.378152,1464.99856 381.238919,1474.64731 379.675677,1481.98871 C376.535146,1496.72367 371.016641,1517.81489 381.110488,1530.63576 C386.560764,1537.56183 393.706726,1538.56503 401.775784,1540.90649 C411.432164,1543.70943 420.95008,1546.97584 430.652614,1549.6303 C466.101482,1559.33322 504.407933,1561.23127 540.739761,1566.57831 C549.635591,1567.88648 557.887261,1567.76409 566.841286,1567.14412 C572.35979,1566.7609 585.953373,1568.57668 590.542762,1565.27416 C593.001005,1563.50652 591.754826,1561.29347 593.005019,1559.13258 C594.778967,1556.0628 596.93018,1554.81482 599.952314,1552.90473 C604.957097,1549.74265 610.744503,1547.89477 611.589336,1541.36596 C613.65426,1525.37298 593.669246,1516.89998 582.983414,1509.98594 C569.327623,1501.14577 552.83231,1497.73289 538.339713,1490.51789 C530.342898,1486.53721 522.629032,1482.02683 514.925199,1477.51044 C511.583995,1475.55219 504.811285,1473.33513 502.483479,1470.2513 C500.107512,1467.10527 502.433311,1462.61496 503.416608,1458.11863 C507.478228,1439.54142 506.105625,1420.54488 508.206671,1401.77104 C510.307716,1382.96711 509.735798,1364.0468 510.42812,1345.14657 C511.142515,1325.68253 512.749905,1306.26665 513.984043,1286.8307 C515.119852,1268.87949 516.265694,1250.63935 516.456334,1232.67008 C516.634932,1216.00697 518.90655,1199.65887 519.444353,1182.88741 C519.626965,1177.19527 518.60554,1166.87036 522.384211,1162.049 C525.699327,1157.81952 536.674128,1158.35121 541.793294,1157.60884 C555.591563,1155.60646 568.723597,1153.85087 582.365341,1152.64302 C614.82619,1149.76986 650.949319,1147.65512 681.644246,1136.34106 C694.302692,1131.67619 711.147176,1125.30188 715.34726,1110.76555 C720.177456,1094.05629 713.872314,1073.51883 713.663614,1056.43438 C713.440867,1038.19425 708.153136,1020.39752 704.18784,1002.72319 C699.91752,983.696551 697.228503,964.342867 692.615033,945.388455 C688.380835,927.995019 681.513808,912.591926 675.02204,896.079297 C672.387205,889.381951 657.386905,866.304398 662.04051,860.612256 C664.546915,857.546485 673.575188,856.77001 677.237469,855.36754 C685.131941,852.347916 693.04046,848.912968 700.320873,844.611258 C710.039461,838.86695 731.320823,829.364664 732.302113,816.601987 C733.235242,804.403106 721.24905,792.075817 715.15662,782.497288 C705.339702,767.060087 692.958184,753.565075 683.608834,737.822902 C664.713473,706.009506 649.687086,671.164448 635.910892,636.88118 C628.704728,618.944011 626.350835,602.054179 625.164858,582.90916 C646.091028,582.95932 667.39045,585.533525 688.184176,582.608201 C710.814059,579.422046 733.474043,574.058953 755.90526,569.638865 C796.754236,561.587203 835.975754,552.496228 873.816643,534.366445 C909.253471,517.390338 945.210041,498.809116 974.550426,471.861228 C989.721298,457.926816 1005.19719,443.725554 1018.29712,427.790766 C1031.75625,411.422598 1041.8802,392.825324 1052.26301,374.448755 C1063.72344,354.16611 1072.84603,332.850171 1080.05822,310.663458 C1081.50908,306.203242 1081.51711,300.523139 1083.37333,296.30971 C1085.46836,291.552548 1089.27914,291.428151 1093.25848,288.922164 C1098.85525,285.396928 1102.58174,273.599327 1092.86717,271.815642"
           id="path13" />
        <path
           d="M605.669359,44.762756 C610.453291,48.8723287 631.070732,63.3483541 637.730275,59.8284777 C645.947046,55.4830266 632.93818,42.393804 629.435949,39.1667423 C624.978566,35.0612366 609.051174,22.6410142 602.952886,23.7939719 C590.764472,26.0998875 601.365045,41.0639374 605.669359,44.762756"
           id="path14" />
        <path
           d="M615.852873,193.333895 C618.556099,188.014433 625.745357,186.058836 629.068864,180.911163 C633.068676,174.722768 634.905509,169.307424 633.430841,161.71875 C623.194201,165.164515 611.548923,175.593698 604.699818,183.749674 C598.975224,190.565298 590.843538,204.807794 605.782309,204.84375 C605.65225,202.816242 605.522191,200.786736 605.390131,198.761225 C609.870162,199.412425 613.817951,197.342968 615.852873,193.333895"
           id="path15" />
        <path
           d="M567.088461,104.831915 C573.687444,106.728732 579.133581,106.460173 585.876416,106.608537 C590.769429,106.717464 597.455534,109.406812 601.420597,106.375661 C597.901275,104.337991 602.348547,104.225309 601.477328,102.238346 C600.745908,100.581917 599.356009,101.12467 598.227475,99.7837515 C594.199604,95.0060258 590.69649,95.0642449 584.310247,94.0707634 C579.360503,93.2970122 572.082779,91.5128772 567.32754,93.9731055 C562.323092,96.5629183 560.386147,102.905049 567.088461,104.831915"
           id="path16" />
        <path
           d="M661.02545,251.374441 C665.293781,247.794683 669.946101,237.430562 670.809064,232.083632 C671.146569,229.988693 669.636889,228.383429 669.816757,226.841349 C670.162347,223.903302 676.201066,218.222681 669.875366,215.811824 C664.341895,213.701089 659.141887,230.09729 657.735277,233.675074 C656.29229,237.333812 652.363485,244.461737 653.570016,248.002005 C654.570406,250.938078 658.143517,253.789248 661.02545,251.374441"
           id="path17" />
        <path
           d="M712.082503,29.4595654 C715.944348,25.8755517 718.387636,21.8109073 717.987932,16.8823705 C717.67052,13.0000343 714.76287,-0.385117452 711.490784,0.00850255045 C700.626284,1.31987866 705.510901,35.5627472 712.082503,29.4595654"
           id="path18" />
        <path
           d="M482.707489,627.893195 C481.813702,624.620291 478.563025,604.60939 472.943514,605.972765 C468.673642,607.008851 473.108736,624.618283 473.307797,626.935419 C473.723836,631.782531 464.40576,631.623905 460.076169,630.969324 C453.208542,629.931231 453.759942,625.907365 452.732784,619.664751 C452.346605,617.305449 450.859614,606.64341 445.93881,610.548808 C442.61448,613.187211 444.991276,626.335052 445.267972,629.33488 C446.227449,639.723842 447.354138,657.465797 453.531022,666.900999 C455.993414,670.663836 458.20897,672.521159 460.796772,667.696134 C463.414433,662.81288 457.488367,647.928191 456.451256,642.932494 C461.34021,643.410378 475.411879,641.824124 478.356001,646.902146 C481.045324,651.536418 476.743601,664.778631 485.370934,665.852866 C490.488809,666.491384 489.561182,660.562005 489.069499,656.004034 C488.036369,646.440325 485.2296,637.131622 482.707489,627.893195"
           id="path19" />
        <path
           d="M495.81534,623.264215 C490.14879,625.823418 497.263614,663.14375 505.55353,661.940267 C515.229449,660.533117 501.214732,620.824333 495.81534,623.264215"
           id="path20" />
        <path
           d="M489.500184,610.90556 C488.801963,619.30857 499.721306,622.441427 500.238198,613.309524 C500.636289,606.263559 490.235921,602.07193 489.500184,610.90556"
           id="path21" />
        <path
           d="M429.560953,388.115952 C434.546777,406.694327 479.921827,414.596485 473.809126,389.542053 C470.746695,376.996278 457.961908,388.141349 449.03404,386.682038 C443.257781,385.738467 426.050609,375.015366 429.560953,388.115952"
           id="path22" />
        <path
           d="M418.165309,354.977575 C420.298869,345.035758 398.553192,334.063825 390.662782,336.800819 C379.119368,340.805495 379.168893,366.410665 387.974536,373.218215 C389.133433,374.114575 392.685406,376.250669 394.424743,374.547783 C397.170439,371.854708 394.171172,372.589365 393.529321,369.900283 C392.513057,365.624104 389.186921,360.134144 392.499189,355.269042 C398.7612,346.077852 415.110573,369.221524 418.165309,354.977575"
           id="path23" />
        <path
           d="M351.858525,403.230438 C344.01775,402.789831 337.589159,414.958981 349.124217,413.93929 C351.333507,413.744164 356.079743,413.18816 357.361629,410.867629 C359.482777,407.021758 355.305629,403.423466 351.858525,403.230438"
           id="path24" />
        <path
           d="M732.220153,113.12214 C729.536759,109.240306 723.910726,102.993317 719.07017,106.886908 C714.779062,110.339604 715.527781,118.861609 717.174189,123.096159 C721.602659,134.496717 732.065379,144.652973 743.905587,138.084621 C739.792469,129.844788 737.474729,120.721206 732.220153,113.12214"
           id="path25" />
      </g>
    </g>
  </g>
</svg>
