<?xml version="1.0" encoding="UTF-8" standalone="no"?>
<svg
   height="29"
   viewBox="0 -960 1160 1160"
   width="29"
   version="1.1"
   id="svg1"
   sodipodi:docname="favicon.svg"
   inkscape:version="1.3.2 (091e20ef0f, 2023-11-25, custom)"
   inkscape:export-filename="256x256.png"
   inkscape:export-xdpi="847.4483"
   inkscape:export-ydpi="847.4483"
   xmlns:inkscape="http://www.inkscape.org/namespaces/inkscape"
   xmlns:sodipodi="http://sodipodi.sourceforge.net/DTD/sodipodi-0.dtd"
   xmlns="http://www.w3.org/2000/svg"
   xmlns:svg="http://www.w3.org/2000/svg">
  <defs
     id="defs1" />
  <sodipodi:namedview
     id="namedview1"
     pagecolor="#ffffff"
     bordercolor="#000000"
     borderopacity="0.25"
     inkscape:showpageshadow="2"
     inkscape:pageopacity="0.0"
     inkscape:pagecheckerboard="0"
     inkscape:deskcolor="#d1d1d1"
     inkscape:zoom="20.170828"
     inkscape:cx="7.981824"
     inkscape:cy="17.525309"
     inkscape:window-width="1920"
     inkscape:window-height="1011"
     inkscape:window-x="0"
     inkscape:window-y="0"
     inkscape:window-maximized="1"
     inkscape:current-layer="svg1" />
  <circle
     style="fill:#ffffff;fill-opacity:1;stroke-width:64.4443"
     id="path3"
     cx="580"
     cy="-380"
     r="580" />
  <path
     d="m 180,9 v -80 q 46,0 91,-6 45,-6 88,-22 -46,-23 -72.5,-66.5 Q 260,-209 260,-260 v -91 h 160 v -120 h 135 l -131,-262 72,-36 131,262 q 20,40 -3,78 -23,38 -68,38 h -56 v 40 q 0,33 -23.5,56.5 Q 453,-271 420,-271 h -80 v 11 q 0,35 21.5,61.5 21.5,26.5 54.5,35.5 l 12,3 q 40,10 45,50 5,40 -31,60 Q 382,-17 315.5,-4 249,9 180,9 Z m 572,-114 -57,-56 q 21,-21 33,-48.5 12,-27.5 12,-59.5 0,-32 -12,-59.5 -12,-27.5 -33,-48.5 l 57,-57 q 32,32 50,74.5 18,42.5 18,90.5 0,48 -18,90 -18,42 -50,74 z M 865,9 808,-48 q 43,-43 67.5,-99.5 Q 900,-204 900,-269 900,-335 875.5,-391 851,-447 808,-490 l 57,-57 q 54,54 84.5,125 30.5,71 30.5,153 0,81 -30.5,152.5 Q 919,-45 865,9 Z"
     id="path1" />
</svg>
